<?xml version="1.0" encoding="iso-8859-1"?>
<!-- Uploaded to: SVG Repo, www.svgrepo.com, Generator: SVG Repo Mixer Tools -->
<svg version="1.1" id="Layer_1" xmlns="http://www.w3.org/2000/svg" xmlns:xlink="http://www.w3.org/1999/xlink" 
	 viewBox="0 0 512 512" xml:space="preserve">
<rect x="64" width="384" height="512"/>
<path style="fill:#5B5C5F;" d="M441,505.024H71V6.968h370V505.024z M75,501.024h362V10.968H75V501.024z"/>
<rect x="138.4" y="112.4" style="fill:#FFFFFF;" width="64" height="10.4"/>
<g>
	<rect x="224" y="112.4" style="fill:#BCBCBC;" width="42.4" height="10.4"/>
	<rect x="160" y="134" style="fill:#BCBCBC;" width="64" height="10.4"/>
</g>
<g>
	<rect x="256" y="134" style="fill:#E21B1B;" width="53.6" height="10.4"/>
	<rect x="277.6" y="219.6" style="fill:#E21B1B;" width="53.6" height="10.4"/>
</g>
<g>
	<rect x="160" y="176.4" style="fill:#FFFFFF;" width="42.4" height="10.4"/>
	<rect x="288" y="240.4" style="fill:#FFFFFF;" width="42.4" height="10.4"/>
</g>
<rect x="200" y="155.6" style="fill:#BCBCBC;" width="88" height="10.4"/>
<rect x="170.4" y="198" style="fill:#E21B1B;" width="21.6" height="10.4"/>
<rect x="234.4" y="219.6" style="fill:#BCBCBC;" width="21.6" height="10.4"/>
<rect x="245.6" y="240.4" style="fill:#FFFFFF;" width="21.6" height="10.4"/>
<rect x="309.6" y="262" style="fill:#E21B1B;" width="21.6" height="10.4"/>
<rect x="256" y="262" style="fill:#FFFFFF;" width="21.6" height="10.4"/>
<rect x="234.4" y="326" style="fill:#E21B1B;" width="32" height="10.4"/>
<rect x="362.4" y="219.6" style="fill:#BCBCBC;" width="21.6" height="10.4"/>
<rect x="160" y="283.6" style="fill:#FFFFFF;" width="42.4" height="10.4"/>
<rect x="224" y="283.6" style="fill:#E21B1B;" width="42.4" height="10.4"/>
<g>
	<rect x="277.6" y="283.6" style="fill:#FFFFFF;" width="42.4" height="10.4"/>
	<rect x="160" y="326" style="fill:#FFFFFF;" width="42.4" height="10.4"/>
</g>
<rect x="341.6" y="283.6" style="fill:#E21B1B;" width="42.4" height="10.4"/>
<rect x="172" y="306.8" style="fill:#BCBCBC;" width="40" height="10.4"/>
<rect x="160" y="347.6" style="fill:#E21B1B;" width="106.4" height="10.4"/>
<rect x="149.6" y="368.4" style="fill:#FFFFFF;" width="128" height="10.4"/>
<g>
	<rect x="213.6" y="390" style="fill:#BCBCBC;" width="53.6" height="10.4"/>
	<rect x="320" y="368.4" style="fill:#BCBCBC;" width="42.4" height="10.4"/>
</g>
<g>
	<rect x="298.4" y="390" style="fill:#FFFFFF;" width="53.6" height="10.4"/>
	<rect x="298.4" y="347.6" style="fill:#FFFFFF;" width="42.4" height="10.4"/>
	<rect x="234.4" y="176.4" style="fill:#FFFFFF;" width="64" height="10.4"/>
	<rect x="213.6" y="198" style="fill:#FFFFFF;" width="64" height="10.4"/>
	<rect x="160" y="262" style="fill:#FFFFFF;" width="64" height="10.4"/>
	<rect x="149.6" y="219.6" style="fill:#FFFFFF;" width="64" height="10.4"/>
</g>
<rect x="138.4" y="240.4" style="fill:#BCBCBC;" width="64" height="10.4"/>
<g>
	<path style="fill:#E21B1B;" d="M120,57.2l20.8-10.4V50l-17.6,8.8l0,0l17.6,8.8V70L120,59.6V57.2z"/>
	<path style="fill:#E21B1B;" d="M151.2,40.4v12.8h14.4V40.4h4V70h-4V56.4h-14.4V70h-4V40.4H151.2z"/>
	<path style="fill:#E21B1B;" d="M181.6,43.6h-8.8v-3.2h22.4v3.2h-8.8V70h-4V43.6H181.6z"/>
	<path style="fill:#E21B1B;" d="M223.2,57.2c0-4-0.8-8.8-0.8-12.8l0,0c-1.104,3.808-2.44,7.552-4,11.2L213.6,70h-3.2l-4.8-14.4
		c-1.44-3.888-2.512-7.912-3.2-12l0,0c0.136,4.28-0.136,8.568-0.8,12.8L200.8,70h-4l2.4-29.6h4.8l4.8,14.4
		c1.32,3.384,2.392,6.856,3.2,10.4l0,0c0.808-3.544,1.88-7.016,3.2-10.4l5.6-14.4h4.8l1.6,29.6H224L223.2,57.2z"/>
	<path style="fill:#E21B1B;" d="M233.6,40.4h4v26.4h12.8V70h-16.8V40.4z"/>
	<path style="fill:#E21B1B;" d="M274.4,59.6L253.6,70v-3.2l17.6-8.8l0,0l-17.6-8.8v-2.4l20.8,10.4L274.4,59.6z"/>
	<path style="fill:#E21B1B;" d="M120,457.2l20.8-10.4v3.2l-17.6,8.8l0,0l17.6,8.8v2.4L120,459.6V457.2z"/>
	<path style="fill:#E21B1B;" d="M144,471.6l12-32h3.2l-12,32H144z"/>
	<path style="fill:#E21B1B;" d="M166.4,440.4v12.8h14.4v-12.8h3.2V470h-4v-13.6h-14.4V470h-4v-29.6H166.4z"/>
	<path style="fill:#E21B1B;" d="M196.8,443.6H188v-3.2h22.4v3.2h-8.8V470h-4v-26.4H196.8z"/>
	<path style="fill:#E21B1B;" d="M238.4,457.2c0-4-0.8-8.8-0.8-12.8l0,0c-1.104,3.808-2.44,7.552-4,11.2l-4.8,14.4h-3.2l-4.8-14.4
		c-1.44-3.888-2.512-7.912-3.2-12l0,0c0.136,4.28-0.136,8.568-0.8,12.8L216,470h-4l2.4-29.6h4.8l4.8,14.4
		c1.32,3.384,2.392,6.856,3.2,10.4l0,0c0.808-3.544,1.88-7.016,3.2-10.4l5.6-14.4h4.8l1.6,29.6h-4V457.2z"/>
	<path style="fill:#E21B1B;" d="M248.8,440.4h4v26.4h12.8v3.2h-16.8V440.4z"/>
	<path style="fill:#E21B1B;" d="M289.6,459.6L268.8,470v-3.2l17.6-8.8l0,0l-17.6-8.8V446l20.8,10.4V459.6z"/>
</g>
</svg>