<?xml version="1.0" standalone="no"?>
<!DOCTYPE svg PUBLIC "-//W3C//DTD SVG 20010904//EN"
 "http://www.w3.org/TR/2001/REC-SVG-20010904/DTD/svg10.dtd">
<svg version="1.0" xmlns="http://www.w3.org/2000/svg"
 width="3000.000000pt" height="1994.000000pt" viewBox="0 0 3000.000000 1994.000000"
 preserveAspectRatio="xMidYMid meet">

<g transform="translate(0.000000,1994.000000) scale(0.100000,-0.100000)"
fill="#000000" stroke="none">
<path d="M0 9970 l0 -9970 15000 0 15000 0 0 9970 0 9970 -15000 0 -15000 0 0
-9970z m13023 8981 c6 -6 25 -188 27 -268 0 -6 14 -14 30 -18 27 -6 30 -11 30
-44 0 -40 -15 -62 -36 -54 -10 3 -14 -3 -14 -20 0 -58 -14 -66 -82 -46 -36 9
-38 12 -38 49 0 47 -6 51 -118 75 -72 16 -85 22 -93 43 -14 37 -3 57 101 185
l95 117 45 -5 c24 -3 48 -9 53 -14z m200 -399 c38 -34 9 -102 -45 -102 -42 0
-72 34 -64 74 3 17 14 37 23 43 19 15 60 7 86 -15z m-1749 -532 c105 -40 150
-134 91 -190 l-25 -24 29 -18 c37 -24 64 -80 56 -117 -7 -32 -50 -76 -81 -83
-34 -8 -135 11 -190 36 -46 21 -52 28 -56 60 -7 58 3 63 70 33 66 -30 142 -37
142 -13 0 23 -55 62 -104 75 -40 10 -46 15 -52 45 -3 19 -3 39 0 44 3 6 32 8
66 5 47 -5 60 -3 60 8 -1 37 -44 60 -117 62 -49 2 -58 5 -80 33 -22 29 -23 33
-8 48 24 24 130 21 199 -4z m-2972 -188 c12 -13 79 -372 73 -391 -5 -17 -10
-18 -53 -7 l-47 12 -29 145 c-16 79 -30 146 -32 147 -1 2 -16 -4 -33 -14 -30
-18 -31 -18 -56 6 -14 13 -24 31 -23 39 2 9 28 30 58 48 45 26 62 31 95 27 22
-3 43 -8 47 -12z m1609 -152 c82 -23 149 -94 149 -159 0 -31 -9 -44 -65 -98
l-65 -62 37 -10 c21 -5 60 -15 86 -22 27 -6 51 -18 54 -25 4 -11 9 -10 28 2
20 13 28 14 52 2 38 -18 56 -56 39 -83 -18 -27 -51 -30 -84 -9 -15 10 -36 17
-48 16 -19 -3 -290 61 -299 70 -2 1 -6 15 -10 30 -8 31 4 45 103 120 71 55 79
83 35 118 -24 19 -37 21 -84 17 -53 -5 -58 -3 -78 24 -27 37 -27 45 7 63 32
18 92 20 143 6z m1622 -41 c12 -7 25 -17 29 -23 13 -19 9 -54 -8 -70 -35 -35
-106 -4 -106 47 0 51 37 71 85 46z m-2980 -167 c21 -18 22 -65 2 -82 -17 -14
-68 -5 -86 16 -17 21 -14 66 7 81 20 14 50 9 77 -15z m8632 -1266 c231 -36
510 -79 620 -96 110 -17 256 -40 325 -50 69 -11 208 -33 309 -49 l183 -28 42
-44 c244 -259 1183 -1256 1220 -1296 l48 -52 -23 -33 c-13 -18 -68 -89 -122
-158 -54 -69 -115 -147 -136 -175 -201 -259 -366 -474 -416 -538 -71 -93 -139
-181 -295 -382 -63 -81 -137 -176 -163 -211 l-48 -63 -112 58 c-62 32 -175 91
-252 131 -77 40 -194 101 -260 135 -66 34 -176 91 -245 127 -69 36 -190 99
-270 140 -80 42 -188 98 -240 125 -52 28 -174 91 -270 141 -345 179 -383 199
-390 213 -8 14 8 2144 16 2167 2 9 13 12 31 8 16 -3 217 -35 448 -70z m-9915
-1023 c0 -3 -27 -41 -60 -85 -33 -43 -60 -83 -60 -88 0 -6 -4 -10 -8 -10 -5 0
-38 -42 -75 -92 -36 -51 -75 -104 -87 -118 -12 -14 -34 -42 -49 -64 -40 -59
-48 -70 -171 -236 -64 -85 -143 -192 -175 -237 -33 -45 -104 -142 -158 -215
-249 -335 -329 -450 -321 -458 5 -5 25 -13 44 -18 43 -13 18 -15 -32 -3 l-36
8 -62 -84 c-34 -47 -59 -87 -57 -89 3 -3 52 -18 111 -34 l106 -28 26 34 c32
41 43 38 18 -5 -10 -17 -15 -33 -12 -36 10 -10 203 -62 215 -58 6 2 30 31 53
64 23 33 44 58 46 56 3 -2 -14 -32 -38 -66 -35 -51 -40 -64 -28 -71 12 -8 11
-10 -7 -10 -12 0 -25 -4 -28 -10 -10 -16 -28 -12 -21 5 4 11 -14 21 -77 40
-126 38 -143 40 -152 18 -7 -16 -8 -16 -14 6 -5 20 -21 28 -111 53 -98 27
-105 28 -117 12 -7 -10 -16 -15 -19 -11 -4 3 11 30 32 59 63 86 251 341 273
369 11 14 97 131 192 260 94 129 227 308 295 399 153 206 248 335 417 567 118
164 147 198 147 176z m-421 -105 c5 -13 6 -27 3 -33 -3 -5 6 0 19 12 22 20 29
21 67 11 50 -12 62 -44 12 -33 -40 9 -57 -3 -31 -22 28 -19 27 -59 0 -74 -28
-14 -100 -5 -114 15 -7 9 -20 13 -33 9 -33 -8 -70 5 -77 27 -7 22 26 83 53
100 9 5 34 10 55 10 30 0 39 -5 46 -22z m14425 -22 c27 -8 56 -22 67 -32 37
-33 17 -116 -31 -132 -25 -9 -116 0 -128 13 -5 5 15 125 26 153 5 15 8 15 66
-2z m646 -232 c763 -185 1452 -351 1623 -390 37 -9 67 -20 67 -24 0 -15 -29
-19 -62 -9 -18 5 -107 27 -198 49 -91 21 -370 89 -620 150 -250 60 -606 146
-790 190 -184 45 -352 85 -372 91 -39 10 -52 29 -21 29 10 0 177 -39 373 -86z
m-15295 -57 c0 -43 3 -44 55 -17 71 36 100 22 60 -30 -11 -14 -20 -36 -20 -49
0 -16 -4 -21 -15 -17 -8 3 -18 -2 -23 -10 -10 -18 -43 -8 -36 11 7 17 -34 26
-89 19 -89 -12 -114 36 -53 101 31 32 39 36 78 33 43 -3 43 -3 43 -41z m2391
-2 c-13 -10 -15 -15 -6 -15 7 0 11 -2 8 -5 -3 -3 -12 -3 -21 1 -13 5 -14 9 -4
20 7 7 19 13 27 13 11 0 10 -3 -4 -14z m69 6 c-3 -6 11 -11 32 -13 20 -2 38
-8 40 -14 4 -12 -37 -68 -45 -60 -2 3 0 12 7 19 9 11 7 17 -5 28 -10 8 -24 14
-33 15 -55 4 -57 5 -26 19 38 17 37 17 30 6z m11 -54 c19 7 18 -2 -3 -34 -10
-15 -12 -24 -5 -20 12 8 18 -14 6 -26 -14 -14 -29 19 -25 57 2 23 6 36 8 29 2
-7 11 -9 19 -6z m12160 -32 c37 -15 43 -43 8 -37 -85 16 -93 15 -99 -11 -12
-46 -3 -61 48 -76 55 -17 57 -37 3 -35 -75 3 -112 46 -94 111 15 59 66 77 134
48z m-11956 -41 c25 -8 59 -14 76 -14 16 0 34 -4 40 -9 13 -14 174 -55 207
-53 15 1 27 -2 27 -7 0 -9 185 -61 218 -61 12 0 22 -2 22 -5 0 -4 -185 -291
-507 -785 -41 -63 -134 -206 -206 -317 -547 -840 -531 -817 -537 -792 -5 21
-19 28 -114 53 -105 29 -109 29 -122 11 -8 -10 -15 -15 -15 -9 -1 5 -2 16 -3
24 -2 22 -203 76 -228 61 -24 -15 -26 -14 -24 6 2 24 -197 82 -225 65 -25 -16
-30 -15 -27 5 4 24 -195 82 -223 65 -25 -16 -30 -15 -27 5 4 25 -194 83 -223
65 -25 -16 -28 -15 -23 6 4 14 -11 22 -94 45 -107 29 -132 33 -132 17 0 -5 -6
-10 -14 -10 -9 0 -12 7 -10 18 4 14 -12 22 -101 46 -80 22 -109 26 -117 18
-17 -17 -29 -15 -26 5 2 14 -15 22 -84 42 -110 31 -108 40 3 12 46 -12 88 -21
95 -21 18 0 128 160 118 170 -14 12 -195 62 -209 56 -7 -2 -38 -41 -70 -86
-46 -65 -55 -84 -44 -91 11 -7 9 -9 -7 -9 -11 0 -25 -5 -31 -11 -9 -9 -12 -7
-10 10 1 11 5 21 9 21 5 0 37 39 72 87 44 60 61 90 53 95 -8 5 -7 8 4 8 16 0
135 167 126 177 -3 2 -49 17 -103 33 -55 16 -91 29 -81 29 10 1 58 -10 107
-24 49 -14 91 -25 94 -25 7 0 116 158 116 169 0 5 -10 12 -22 14 -15 3 -11 5
13 6 34 1 41 8 119 116 46 63 86 112 89 110 2 -3 -3 -13 -12 -23 -10 -10 -17
-23 -17 -29 0 -6 -4 -13 -9 -15 -16 -6 -121 -162 -113 -169 13 -13 200 -59
214 -54 19 8 113 144 112 161 -1 8 4 14 10 14 7 0 29 23 50 50 48 63 57 65 15
3 -18 -25 -32 -52 -32 -60 0 -7 -5 -13 -11 -13 -6 0 -37 -38 -69 -85 l-58 -84
43 -11 c24 -7 73 -20 110 -30 61 -17 70 -17 83 -4 32 32 105 142 105 158 0 10
4 15 9 12 9 -6 128 161 120 168 -2 2 -17 8 -34 14 -28 10 -28 11 11 5 l40 -5
57 79 c33 45 55 84 52 93 -4 8 -3 11 1 7 4 -4 16 1 26 10 18 16 18 16 12 -3
-4 -10 -11 -21 -16 -24 -12 -9 -118 -163 -114 -167 10 -10 215 -60 223 -54 17
11 114 152 109 159 -2 4 7 15 21 26 25 18 25 18 19 -1 -6 -18 4 -23 92 -47 54
-14 106 -26 115 -26 16 0 117 138 117 160 0 5 -6 10 -12 11 -7 1 -2 4 12 8 16
4 45 35 83 91 71 104 76 95 5 -12 -29 -45 -47 -82 -42 -87 11 -10 175 -51 202
-51 13 0 37 27 73 80 29 44 60 80 68 80 11 0 12 -3 5 -8 -22 -14 -114 -156
-107 -163 8 -8 189 -59 208 -59 11 0 102 128 107 150 2 8 -13 19 -37 27 l-40
13 51 -6 51 -5 47 72 c50 78 56 99 29 99 -10 0 -25 5 -33 10 -11 7 -3 10 29 8
l44 -3 51 73 c58 85 59 82 -51 109 -40 9 -73 20 -73 25 0 9 24 4 100 -18z
m863 -35 c20 -5 37 -16 37 -23 0 -21 -11 -26 -32 -15 -11 6 -22 8 -25 5 -3 -2
12 -12 33 -21 37 -16 40 -15 53 4 15 23 57 27 82 8 42 -32 54 -118 20 -137
-23 -12 -60 -1 -80 24 -10 11 -23 14 -50 10 -44 -7 -91 10 -91 32 0 16 3 16
61 1 4 -1 9 3 11 8 1 6 -13 15 -32 21 -34 11 -46 31 -49 77 -1 20 10 21 62 6z
m421 -61 c11 -53 48 -339 44 -343 -2 -2 -16 73 -32 167 -15 94 -30 177 -33
185 -3 7 0 13 6 13 6 0 13 -10 15 -22z m11123 -79 c114 -27 372 -91 573 -140
201 -50 397 -96 435 -104 93 -17 450 -109 500 -129 l40 -15 -55 5 c-30 3 -73
10 -94 16 -21 5 -89 20 -150 33 -61 13 -165 38 -231 55 -131 34 -254 65 -770
190 -187 45 -371 90 -409 99 -38 9 -71 22 -74 29 -6 19 12 16 235 -39z
m-15336 11 c26 -14 25 -60 -2 -95 -25 -31 -15 -45 33 -45 35 0 44 16 18 30
-30 16 -24 30 14 30 44 0 56 17 19 26 -40 10 -47 15 -32 25 16 10 68 2 87 -13
18 -15 15 -36 -8 -55 -11 -10 -20 -25 -20 -34 0 -30 -27 -42 -82 -37 -28 3
-56 12 -62 19 -6 8 -23 13 -38 11 -75 -9 -90 48 -29 109 39 40 67 47 102 29z
m2059 -45 c-7 -9 -15 -13 -17 -11 -7 7 7 26 19 26 6 0 6 -6 -2 -15z m1835
-192 l8 -48 9 33 c11 41 31 49 73 29 43 -20 65 -81 46 -123 -10 -23 -16 -26
-44 -20 -18 3 -41 16 -51 29 -13 15 -20 18 -23 10 -7 -19 -31 -15 -43 7 -6 10
-26 22 -45 26 -43 8 -44 23 -4 69 44 50 65 47 74 -12z m-2564 -30 c-14 -24
-55 -72 -45 -53 10 20 47 70 51 70 2 0 -1 -8 -6 -17z m796 11 c-3 -3 -12 -4
-19 -1 -8 3 -5 6 6 6 11 1 17 -2 13 -5z m4438 -47 l160 -43 -2 -28 c-1 -16
-25 -67 -53 -113 -27 -47 -50 -88 -50 -93 0 -30 -32 -27 -200 17 -96 25 -177
47 -179 49 -2 2 11 29 29 61 82 146 112 193 123 193 7 -1 84 -20 172 -43z
m-2298 -24 c-3 -10 -5 -4 -5 12 0 17 2 24 5 18 2 -7 2 -21 0 -30z m-4499 -5
c18 -18 15 -52 -8 -81 -27 -34 -26 -37 18 -25 86 24 116 58 51 58 -19 0 -29 5
-29 15 0 23 66 19 90 -5 11 -11 20 -24 20 -28 0 -15 -35 -41 -76 -56 -35 -13
-37 -15 -16 -22 19 -5 33 -34 16 -34 -18 0 -101 25 -113 34 -7 6 -26 9 -40 8
-16 -2 -38 5 -50 16 -29 22 -23 48 21 98 24 27 37 34 67 34 20 0 42 -5 49 -12z
m4539 -278 c-2 -28 -38 213 -36 245 1 11 10 -34 20 -100 10 -66 18 -131 16
-145z m-3047 236 c0 -2 -8 -10 -17 -17 -16 -13 -17 -12 -4 4 13 16 21 21 21
13z m13478 -31 c24 -11 32 -20 32 -39 0 -14 -4 -27 -9 -30 -4 -3 -6 -17 -3
-31 9 -51 -37 -68 -121 -44 -28 7 -37 15 -33 25 3 8 11 44 18 80 l12 66 35 -7
c20 -4 51 -13 69 -20z m2179 -1 c-3 -3 -12 -4 -19 -1 -8 3 -5 6 6 6 11 1 17
-2 13 -5z m-15693 -15 c-3 -6 0 -16 7 -21 11 -8 11 -9 -2 -5 -9 3 -22 0 -29
-6 -7 -7 -5 0 5 16 9 15 19 27 22 27 2 0 1 -5 -3 -11z m2675 -80 c35 -12 54
-39 45 -63 -3 -9 -3 -16 0 -16 4 0 11 11 16 25 7 18 17 25 37 25 33 0 43 -7
66 -40 21 -30 22 -83 2 -100 -19 -16 -59 -6 -84 21 -15 16 -23 19 -39 10 -24
-13 -91 4 -99 25 -8 22 2 27 27 14 11 -6 29 -9 38 -7 12 3 8 8 -15 18 -39 16
-43 39 -7 39 35 0 21 18 -21 26 -34 6 -42 14 -28 27 9 10 25 9 62 -4z m11412
-149 c200 -49 375 -91 389 -94 21 -3 262 -63 393 -97 39 -10 53 -35 15 -26
-13 3 -111 25 -218 50 -107 25 -229 54 -270 65 -41 11 -199 50 -350 86 -354
86 -350 85 -350 96 0 6 6 10 14 10 7 0 177 -40 377 -90z m-14146 10 c13 -5 14
-9 5 -9 -8 0 -24 4 -35 9 -13 5 -14 9 -5 9 8 0 24 -4 35 -9z m4887 -21 c62
-16 118 -35 124 -40 10 -8 8 -19 -5 -50 -15 -32 -16 -47 -8 -78 8 -28 7 -50
-1 -78 -23 -72 -13 -71 -194 -24 -90 23 -167 46 -172 51 -10 10 124 250 140
250 2 0 54 -14 116 -31z m-1735 -16 c-3 -10 -5 -4 -5 12 0 17 2 24 5 18 2 -7
2 -21 0 -30z m-4781 19 c20 -14 24 -43 9 -72 -33 -64 -105 -90 -144 -51 -25
25 -18 52 24 97 25 26 41 34 66 34 19 0 39 -4 45 -8z m1681 2 c-3 -3 -12 -4
-19 -1 -8 3 -5 6 6 6 11 1 17 -2 13 -5z m58 -14 c13 -5 14 -9 5 -9 -8 0 -24 4
-35 9 -13 5 -14 9 -5 9 8 0 24 -4 35 -9z m-1605 -29 c0 -4 -21 -37 -47 -73
-33 -44 -53 -63 -65 -60 -23 5 -23 5 13 55 25 34 28 43 15 45 -22 5 -20 29 2
35 31 8 82 7 82 -2z m4657 -48 c-3 -10 -5 -4 -5 12 0 17 2 24 5 18 2 -7 2 -21
0 -30z m-3948 -48 c-13 -19 -25 -30 -27 -25 -4 12 38 73 46 66 2 -3 -6 -21
-19 -41z m3958 -12 c-3 -10 -5 -4 -5 12 0 17 2 24 5 18 2 -7 2 -21 0 -30z
m-382 3 c40 -17 47 -52 18 -81 -14 -14 -14 -18 -2 -26 25 -16 41 -11 34 12 -4
11 -4 31 -1 45 5 19 13 24 40 24 36 0 58 -19 76 -64 22 -58 -15 -97 -66 -69
-16 9 -38 15 -49 15 -29 -2 -108 23 -112 35 -2 6 12 20 32 31 49 30 47 46 -9
56 -34 6 -40 11 -31 25 9 15 29 14 70 -3z m392 -73 c-3 -10 -5 -4 -5 12 0 17
2 24 5 18 2 -7 2 -21 0 -30z m10 -70 c-3 -10 -5 -4 -5 12 0 17 2 24 5 18 2 -7
2 -21 0 -30z m1253 -43 c87 -22 140 -47 123 -59 -21 -13 -33 -76 -27 -136 4
-41 2 -70 -6 -84 -14 -28 -25 -27 -210 22 -74 20 -138 33 -141 29 -4 -4 -31
-49 -59 -99 -35 -61 -59 -93 -70 -93 -9 0 -64 13 -121 29 -57 17 -123 35 -146
41 -24 6 -43 15 -43 21 0 22 134 229 148 229 15 0 266 -65 296 -76 8 -3 31 27
66 88 66 115 69 120 89 114 9 -3 54 -15 101 -26z m8966 -58 c13 -8 58 -162 50
-170 -10 -9 -38 9 -43 28 -3 11 -17 23 -32 26 -14 3 -30 7 -36 9 -5 1 -18 -4
-27 -12 -9 -8 -24 -13 -34 -11 -13 2 -6 17 37 70 54 67 64 74 85 60z m-9814
-78 c104 -27 148 -43 148 -53 0 -15 -66 -130 -109 -191 -14 -19 -26 -36 -27
-38 -1 -2 -66 15 -145 37 -164 45 -160 44 -176 42 -17 -1 -16 -24 3 -109 18
-82 6 -74 199 -128 99 -27 134 -33 147 -25 19 12 48 -9 48 -35 0 -8 5 -12 10
-9 6 4 7 12 4 18 -5 9 -4 9 6 0 7 -6 19 -9 26 -6 8 3 14 0 14 -7 0 -6 5 -8 10
-5 6 4 16 2 23 -3 7 -5 44 -17 82 -27 39 -9 108 -28 155 -41 l84 -25 17 22 17
22 7 -22 c4 -13 12 -20 20 -17 7 2 16 -2 19 -10 4 -9 15 -14 28 -12 13 2 28
-3 33 -10 6 -7 49 -24 95 -36 47 -13 118 -32 157 -44 l73 -20 20 26 c12 15 23
23 26 17 12 -27 23 -36 42 -38 12 -1 22 -5 22 -9 0 -4 6 -5 14 -2 8 3 17 -2
20 -13 5 -15 40 -28 164 -61 86 -24 162 -42 168 -42 6 0 16 11 22 25 12 26 32
34 32 12 0 -11 23 -24 73 -41 9 -3 17 -14 17 -24 0 -16 25 -26 160 -61 88 -24
166 -41 173 -38 7 3 39 56 72 118 l59 114 8 -40 c4 -22 7 -69 8 -105 1 -36 4
-83 8 -104 l7 -40 165 -43 c90 -23 165 -41 166 -40 1 1 23 37 49 79 53 89 65
100 65 61 0 -15 6 -39 13 -54 8 -14 17 -49 20 -78 4 -30 8 -55 9 -56 6 -6 302
-85 319 -85 21 0 32 17 94 152 29 62 56 107 64 108 23 0 285 -71 295 -80 5 -5
-22 -71 -65 -157 -72 -145 -75 -148 -104 -145 -17 2 -120 30 -230 62 -110 32
-297 84 -415 114 -118 31 -246 65 -285 76 -38 12 -92 27 -120 35 -27 8 -149
41 -270 75 -121 34 -308 85 -415 115 -107 29 -283 77 -390 108 -222 63 -547
153 -695 192 -55 15 -118 33 -140 40 -22 7 -67 19 -100 28 -33 9 -91 25 -130
36 -38 11 -178 47 -310 81 -132 34 -243 65 -247 68 -8 8 157 285 172 290 6 2
10 -2 11 -10 3 -61 30 -213 39 -222 20 -20 22 6 6 86 -29 154 -30 146 16 129
73 -27 74 -27 119 49 23 39 47 69 53 67 6 -2 77 -21 158 -43z m-758 -1 c17
-93 18 -113 3 -113 -16 0 -21 11 -31 71 -5 26 -11 36 -23 35 -22 -2 -28 21 -6
27 41 11 51 7 57 -20z m134 -29 c24 -27 30 -82 10 -102 -49 -49 -132 55 -93
115 19 29 48 24 83 -13z m11443 -35 c-5 -13 -10 -19 -10 -12 -1 15 10 45 15
40 3 -2 0 -15 -5 -28z m-499 -79 c156 -38 293 -72 306 -75 30 -7 29 -35 -2
-35 -12 0 -38 5 -57 12 -19 7 -151 42 -293 78 -144 36 -261 71 -264 78 -2 6 3
12 12 12 8 0 143 -31 298 -70z m475 -2 c-3 -8 -6 -5 -6 6 -1 11 2 17 5 13 3
-3 4 -12 1 -19z m-8289 -45 c-1 -32 -4 -50 -6 -40 -4 18 -22 24 -22 7 0 -5 -7
-10 -15 -10 -8 0 -15 5 -15 10 0 6 5 10 11 10 6 0 8 8 4 20 -8 24 11 60 30 60
11 0 14 -13 13 -57z m8324 27 c5 0 7 -7 4 -16 -3 -9 -2 -12 5 -9 6 4 8 13 5
21 -3 8 1 14 10 14 8 0 20 -13 25 -30 6 -16 15 -30 20 -30 6 0 5 -9 -2 -21 -6
-12 -7 -19 -1 -15 5 3 12 -3 15 -14 4 -16 14 -20 44 -20 39 0 39 0 35 -35 -3
-28 -1 -35 13 -35 18 0 45 23 45 39 0 6 5 11 10 11 6 0 10 -19 11 -42 l1 -43
10 38 c13 48 29 48 21 0 -5 -31 -4 -35 10 -30 20 7 23 -8 5 -20 -7 -4 -18 -17
-24 -28 -7 -11 -19 -19 -28 -19 -9 1 -13 -2 -10 -7 6 -11 9 -7 -143 -169 -224
-237 -273 -292 -273 -301 0 -5 -7 -9 -15 -9 -8 0 -15 -5 -15 -10 0 -6 -20 -31
-45 -57 -58 -58 -58 -44 -6 120 21 67 51 163 66 212 15 50 33 108 40 130 8 22
33 101 55 175 46 150 69 212 69 192 1 -7 -3 -21 -7 -30 -5 -9 -6 -28 -1 -42 7
-24 7 -24 8 -3 2 36 26 118 29 100 2 -10 8 -17 14 -17z m-15325 4 c-3 -3 -12
-4 -19 -1 -8 3 -5 6 6 6 11 1 17 -2 13 -5z m7353 -58 l155 -42 3 -77 c2 -49
-1 -77 -8 -77 -5 0 -10 -9 -10 -21 0 -11 -4 -17 -10 -14 -5 3 -10 0 -10 -8 0
-8 -7 -17 -15 -21 -8 -3 -15 -12 -15 -21 0 -9 -6 -15 -12 -14 -7 1 -24 -1 -38
-5 -16 -4 -68 4 -145 25 -66 17 -138 36 -160 42 -22 5 -44 13 -49 18 -7 6 90
213 117 247 14 17 24 16 197 -32z m8210 34 c0 -5 -18 -10 -40 -10 -22 0 -40 5
-40 10 0 6 18 10 40 10 22 0 40 -4 40 -10z m77 -182 c-3 -8 -6 -5 -6 6 -1 11
2 17 5 13 3 -3 4 -12 1 -19z m-8748 -505 c-1 -85 -2 -93 -11 -58 -5 22 -7 50
-5 62 2 12 0 20 -5 17 -5 -3 -7 7 -4 23 2 15 5 34 5 41 1 6 6 12 11 12 6 0 10
-38 9 -97z m2534 -510 c-7 -2 -19 -2 -25 0 -7 3 -2 5 12 5 14 0 19 -2 13 -5z
m2564 -174 c6 -96 16 -232 22 -303 6 -71 11 -138 10 -150 -1 -19 -2 -18 -9 4
-7 22 -8 21 -9 -12 -1 -31 -5 -38 -21 -38 -15 0 -20 -7 -20 -26 0 -26 -11 -41
-45 -60 -11 -6 -24 -25 -29 -43 -5 -17 -13 -31 -17 -31 -5 0 -4 12 2 26 14 38
3 42 -25 11 -14 -15 -30 -27 -36 -27 -5 0 -10 -20 -10 -45 l0 -45 -38 0 c-34
0 -39 -3 -55 -40 -15 -36 -20 -40 -50 -38 -17 1 -35 7 -39 12 -5 7 -11 7 -20
-2 -9 -9 -9 -12 5 -12 19 0 20 -4 11 -49 -6 -28 -10 -31 -44 -31 -33 0 -37 -3
-33 -20 4 -14 -2 -22 -23 -31 -66 -26 -72 -32 -79 -66 -6 -33 -7 -34 -20 -17
-14 18 -14 18 -15 1 0 -10 -15 -35 -34 -55 -31 -32 -34 -40 -31 -84 3 -26 0
-50 -5 -53 -6 -3 -10 -2 -10 2 0 5 -19 9 -41 9 -23 1 -45 8 -50 15 -5 8 -9 10
-9 4 0 -5 -6 -1 -12 9 -9 15 -7 22 8 33 10 7 13 13 7 13 -6 0 -9 9 -6 21 5 16
8 18 15 7 7 -10 8 -9 4 5 -5 17 49 169 165 464 67 169 54 149 364 566 105 140
195 254 200 253 6 -2 15 -79 22 -177z m-12952 -164 c462 -136 984 -289 1159
-340 175 -52 323 -98 328 -103 5 -5 11 -24 14 -43 5 -31 -8 -54 -138 -251 -78
-119 -147 -224 -153 -232 -9 -14 -16 -14 -67 1 -48 13 -59 21 -68 46 -5 16
-10 35 -10 42 0 6 42 74 94 151 81 122 136 213 136 228 0 6 -150 41 -167 39
-7 0 -13 3 -13 8 0 5 -11 9 -24 9 -13 0 -42 6 -64 14 -22 8 -42 13 -45 10 -2
-2 -24 5 -49 16 -25 11 -65 21 -89 23 -23 2 -45 9 -47 15 -2 7 -12 12 -23 12
-10 0 -19 5 -19 11 0 8 -5 8 -15 -1 -10 -9 -15 -9 -15 -1 0 6 -7 11 -16 11 -8
0 -12 -4 -9 -10 3 -6 -4 -10 -17 -10 -18 0 -20 2 -8 10 10 6 11 12 5 18 -14
12 -113 42 -139 42 -12 0 -42 10 -66 21 -24 12 -58 22 -75 23 -16 0 -32 4 -35
7 -6 8 -127 41 -152 42 -9 1 -15 4 -12 8 6 10 -80 27 -113 23 -24 -4 -25 -3
-8 5 19 9 19 10 -2 10 -13 1 -26 1 -29 0 -4 0 -10 3 -13 8 -3 4 -21 13 -39 20
-28 10 -33 10 -28 -2 7 -20 -10 -28 -31 -15 -15 9 -14 10 6 4 16 -4 21 -3 17
5 -4 6 -14 11 -22 11 -8 0 -14 5 -14 11 0 5 -8 9 -17 7 -10 -1 -23 1 -29 4
-31 20 -169 57 -193 52 -18 -4 -22 -3 -13 4 11 8 11 10 -1 15 -16 6 -31 -18
-22 -34 4 -5 -1 -6 -10 -3 -12 5 -13 9 -3 21 15 18 1 29 -57 43 -22 5 -61 16
-86 25 -26 8 -61 15 -78 15 -18 0 -30 4 -26 9 3 6 -11 13 -32 17 -21 4 -56 15
-78 24 -64 27 -102 32 -109 14 -3 -9 -2 -24 4 -34 7 -14 6 -17 -8 -16 -10 0
-16 -6 -16 -16 1 -10 -2 -16 -6 -13 -5 3 -11 1 -15 -5 -3 -5 -1 -10 6 -10 8 0
8 -4 -1 -15 -17 -20 -32 -8 -24 18 3 12 3 19 -1 15 -12 -12 -14 -58 -3 -58 9
0 -34 -65 -52 -80 -4 -3 -9 -13 -13 -23 -4 -11 -12 -15 -18 -11 -7 4 -9 3 -6
-3 4 -6 -1 -20 -11 -31 -9 -12 -39 -54 -67 -93 -27 -39 -65 -87 -82 -107 -18
-20 -33 -42 -33 -49 0 -6 -10 -19 -22 -27 -12 -9 -18 -16 -13 -16 6 0 6 -3 -1
-8 -5 -4 -20 -24 -33 -44 -12 -21 -27 -38 -32 -38 -5 0 -9 -5 -9 -11 0 -10
-26 -45 -75 -101 -8 -10 -13 -18 -9 -18 3 0 -7 -16 -22 -35 -14 -19 -31 -32
-37 -28 -7 4 -8 0 -4 -12 6 -14 3 -16 -13 -12 -17 4 -19 3 -10 -8 12 -15 10
-19 -32 -66 -10 -10 -18 -21 -18 -24 0 -13 -94 -130 -102 -127 -5 1 -7 -2 -3
-8 3 -5 1 -10 -5 -10 -6 0 -9 -4 -5 -10 3 -5 -6 -17 -20 -26 -14 -9 -25 -23
-25 -30 0 -8 -5 -14 -11 -14 -5 0 -7 -4 -4 -10 3 -5 2 -10 -3 -10 -5 0 -12 -9
-15 -21 -3 -12 -10 -18 -16 -14 -7 3 -11 -2 -11 -14 0 -11 -9 -26 -20 -34 -11
-8 -18 -16 -15 -19 3 -3 -16 -29 -42 -59 -27 -29 -41 -49 -33 -45 8 4 6 -1 -6
-11 -12 -10 -26 -29 -33 -41 -7 -12 -16 -20 -21 -17 -6 3 -7 -1 -4 -9 3 -9 2
-16 -3 -16 -6 0 -15 -12 -21 -26 -7 -14 -17 -22 -22 -19 -5 3 -8 0 -5 -7 6
-17 -21 -52 -34 -43 -6 3 -9 0 -6 -7 3 -8 -2 -22 -11 -33 -8 -11 -12 -14 -8
-6 4 8 3 12 -2 8 -5 -3 -20 -26 -32 -51 -28 -55 -37 -62 -51 -39 -6 10 -11 12
-11 6 0 -7 -6 -13 -14 -13 -8 0 -18 -5 -22 -11 -5 -8 1 -10 19 -7 17 3 24 1
20 -8 -2 -6 -1 -14 4 -17 4 -3 161 -53 348 -110 187 -58 665 -207 1062 -331
398 -124 730 -226 740 -228 11 -2 54 53 148 194 72 109 134 200 137 203 6 6
98 -24 115 -37 7 -6 15 -25 19 -43 5 -31 -8 -54 -161 -285 -149 -225 -169
-250 -188 -244 -12 4 -25 11 -28 16 -3 5 -13 6 -22 2 -9 -3 -17 -2 -17 3 0 6
-10 15 -22 22 -20 10 -20 11 -3 7 11 -2 29 -7 39 -12 12 -5 17 -4 13 3 -4 6
-27 16 -52 23 -25 7 -45 16 -45 20 0 7 -10 9 -52 12 -13 1 -26 6 -30 11 -3 6
-19 11 -34 13 -23 2 -26 1 -14 -7 12 -9 12 -10 -3 -5 -10 3 -23 6 -29 6 -6 0
-5 6 2 15 11 13 10 14 -3 10 -8 -4 -18 -1 -22 5 -5 8 -11 8 -21 -1 -11 -9 -14
-8 -14 6 0 10 -3 15 -7 12 -3 -4 -12 -2 -18 3 -9 8 -14 6 -19 -5 -3 -8 -11
-15 -18 -15 -9 0 -8 3 2 10 12 8 10 10 -8 10 -14 0 -21 4 -16 11 4 8 -3 9 -24
4 -18 -3 -33 -2 -37 4 -3 6 -18 11 -33 12 -26 1 -26 1 -4 7 17 5 3 12 -57 25
-45 10 -81 22 -81 28 0 5 -11 9 -24 9 -14 0 -28 5 -32 11 -5 8 -9 8 -14 -1 -4
-7 -13 -9 -20 -5 -9 6 -9 9 1 16 11 7 11 9 -2 9 -19 0 -33 -26 -18 -34 5 -2 4
-3 -3 -2 -7 1 -13 11 -13 22 0 12 -6 18 -17 16 -9 -1 -19 2 -23 8 -3 5 -11 10
-16 10 -6 0 -7 -4 -4 -10 4 -6 -6 -10 -22 -10 -22 0 -25 2 -13 10 12 8 10 10
-10 11 -23 0 -24 1 -5 10 15 7 9 8 -25 5 -25 -2 -39 -2 -32 1 6 3 9 9 6 14 -3
6 -15 4 -29 -5 -22 -14 -23 -14 -17 6 4 18 2 19 -16 9 -15 -8 -28 -7 -54 4
-37 16 -24 20 16 5 17 -6 26 -6 26 0 0 6 -9 10 -20 10 -11 0 -20 4 -20 10 0 6
-9 6 -25 0 -19 -7 -25 -6 -25 4 0 18 -27 28 -52 20 -11 -3 -27 0 -36 8 -9 8
-44 23 -77 33 -72 23 -62 20 -110 30 -22 4 -50 14 -62 22 -17 11 -26 12 -42 3
-16 -8 -26 -8 -39 0 -15 9 -14 10 5 5 18 -5 22 -3 17 10 -4 11 -14 15 -26 11
-23 -5 -50 3 -43 13 2 4 -1 8 -8 8 -7 0 -21 4 -31 9 -14 5 -17 4 -12 -4 8 -14
5 -15 -18 -6 -9 3 -13 11 -9 17 3 5 1 7 -5 3 -6 -3 -13 -2 -17 4 -3 5 -14 10
-24 10 -10 0 -32 7 -47 15 -35 18 -88 21 -64 4 12 -9 12 -10 -3 -5 -10 3 -24
6 -30 6 -6 0 -3 6 7 13 16 12 16 13 -6 13 -71 0 -98 5 -96 16 2 7 -1 12 -7 13
-5 0 -21 7 -34 14 -16 9 -26 10 -30 2 -4 -5 -18 -7 -31 -4 -22 6 -23 7 -4 14
16 6 14 8 -9 8 -16 1 -26 -3 -22 -9 3 -5 -1 -10 -9 -10 -9 0 -16 9 -16 20 0
15 -17 25 -92 48 -94 30 -165 37 -161 16 2 -9 -9 -9 -39 -1 -33 8 -43 17 -55
46 -13 31 -13 39 -2 58 8 12 151 207 319 433 168 227 374 505 458 618 84 114
192 260 240 325 48 65 103 140 122 167 19 27 98 134 175 238 132 179 141 189
165 181 14 -4 403 -119 865 -254z m11875 45 c113 -111 196 -196 185 -189 -18
13 -19 13 -6 -3 7 -10 19 -18 25 -18 7 0 23 -12 37 -26 22 -25 23 -26 2 -15
-12 6 -24 16 -26 23 -4 9 -6 8 -6 -2 -1 -9 5 -22 12 -29 10 -11 7 -12 -13 -7
-24 7 -24 6 -6 -8 22 -18 51 -22 41 -6 -3 6 -1 10 4 10 6 0 11 -2 11 -4 0 -2
3 -13 6 -23 5 -15 4 -16 -6 -3 -9 12 -10 10 -6 -12 4 -16 2 -28 -4 -28 -9 0
-14 14 -11 33 0 4 -2 7 -6 8 -5 0 -19 2 -33 5 -14 2 -20 1 -14 -3 12 -9 28
-61 25 -80 -1 -7 3 -13 9 -13 7 0 7 -6 -1 -21 -6 -13 -7 -24 -2 -28 11 -7 11
-56 0 -67 -4 -5 -5 0 -2 11 5 16 5 17 -3 5 -6 -8 -8 -18 -5 -23 9 -15 -7 -58
-19 -51 -8 5 -9 2 -5 -10 4 -10 -26 -97 -76 -221 -62 -155 -85 -204 -97 -201
-8 2 -89 23 -180 46 -91 24 -219 58 -285 77 -66 19 -194 55 -284 79 -91 25
-167 46 -169 48 -2 2 63 161 143 353 97 229 154 353 168 363 276 194 361 248
376 240 9 -4 108 -99 221 -210z m-12437 -17 c-7 -2 -19 -2 -25 0 -7 3 -2 5 12
5 14 0 19 -2 13 -5z m127 -38 c0 -8 -4 -15 -8 -15 -5 0 -9 7 -9 15 0 8 4 15 9
15 4 0 8 -7 8 -15z m160 -39 c0 -2 -7 -7 -16 -10 -8 -3 -12 -2 -9 4 6 10 25
14 25 6z m415 -144 c-3 -3 -11 0 -18 7 -9 10 -8 11 6 5 10 -3 15 -9 12 -12z
m-700 -38 c44 -14 95 -35 114 -46 35 -22 71 -86 71 -128 0 -29 -34 -107 -58
-133 -16 -18 -15 -19 28 -12 40 6 146 -6 185 -21 16 -7 41 34 28 47 -5 5 -37
12 -70 15 -65 7 -79 19 -67 57 6 18 13 19 78 15 87 -6 133 -28 152 -74 18 -42
8 -69 -62 -170 -86 -122 -79 -116 -108 -108 -14 3 -30 12 -34 19 -4 7 -34 14
-70 17 -94 7 -155 62 -132 122 5 14 8 26 6 26 -2 0 -25 -10 -52 -22 -70 -31
-173 -28 -284 9 -64 21 -85 32 -85 46 0 25 247 366 265 367 9 0 51 -12 95 -26z
m798 19 c-7 -2 -19 -2 -25 0 -7 3 -2 5 12 5 14 0 19 -2 13 -5z m177 -43 c8 -5
11 -10 5 -10 -5 0 -17 5 -25 10 -8 5 -10 10 -5 10 6 0 17 -5 25 -10z m-30 -14
c0 -11 -19 -15 -25 -6 -3 5 1 10 9 10 9 0 16 -2 16 -4z m107 -22 c-3 -3 -12
-4 -19 -1 -8 3 -5 6 6 6 11 1 17 -2 13 -5z m3176 -19 c123 -32 219 -103 260
-194 33 -70 31 -189 -5 -256 -14 -27 -301 -509 -637 -1070 -463 -773 -625
-1036 -669 -1085 -104 -114 -262 -180 -433 -180 -192 0 -335 74 -401 208 -29
59 -33 76 -33 147 0 101 16 136 169 380 63 99 335 536 606 970 590 947 561
903 602 942 65 63 203 130 298 146 60 10 190 6 243 -8z m-3046 -11 c-3 -3 -12
-4 -19 -1 -8 3 -5 6 6 6 11 1 17 -2 13 -5z m12333 -59 c0 -19 -2 -35 -4 -35
-2 0 -6 16 -8 35 -2 19 0 35 4 35 4 0 8 -16 8 -35z m-12846 -85 c27 -10 35
-43 14 -56 -14 -9 18 -34 43 -34 23 0 30 -34 13 -59 -14 -19 -17 -19 -55 -5
-23 7 -45 14 -49 14 -13 0 -121 -160 -115 -170 3 -4 19 -11 35 -15 38 -8 45
-21 29 -52 -12 -23 -18 -24 -56 -19 -60 8 -98 30 -112 64 -15 36 -2 69 61 155
36 50 40 61 30 77 -18 29 -5 47 36 54 20 3 51 17 67 31 36 29 28 27 59 15z
m293 -159 c40 -20 63 -55 63 -96 0 -13 -33 -72 -74 -132 -62 -90 -78 -108 -98
-105 -12 1 -30 10 -38 20 -10 11 -26 16 -47 14 -77 -8 -163 42 -163 94 0 38
21 73 57 95 30 19 44 21 111 15 42 -3 91 -8 109 -12 26 -5 32 -2 38 16 9 29 4
33 -63 38 -64 5 -82 19 -74 58 5 26 6 27 73 21 37 -3 85 -15 106 -26z m4554
-57 c167 -50 268 -154 285 -295 9 -82 -11 -139 -129 -349 -148 -266 -658
-1175 -732 -1305 -34 -60 -115 -204 -180 -320 -193 -344 -206 -364 -270 -422
-246 -223 -679 -187 -810 67 -45 89 -50 201 -12 292 8 19 63 118 122 219 407
695 878 1500 992 1694 89 151 153 248 186 282 55 57 158 114 247 137 76 20
233 20 301 0z m-5752 -129 c12 -12 8 -40 -28 -195 -24 -100 -41 -183 -39 -185
2 -3 42 50 89 116 80 115 85 120 114 114 16 -3 33 -12 38 -20 6 -11 25 -15 65
-15 88 0 142 -43 142 -112 0 -11 -13 -43 -30 -70 -16 -26 -30 -51 -30 -53 0
-3 14 2 32 11 25 13 48 15 107 10 42 -3 90 -8 108 -12 26 -5 32 -3 38 16 9 29
-4 37 -76 45 -60 7 -72 18 -62 54 5 18 13 21 62 21 101 -1 166 -36 177 -97 8
-43 2 -55 -81 -175 -71 -102 -89 -114 -122 -79 -13 13 -37 20 -84 23 -37 3
-77 13 -91 22 -32 21 -52 67 -43 98 l6 23 -18 -21 c-10 -11 -25 -31 -34 -44
-15 -23 -17 -23 -55 -9 -21 8 -40 21 -42 29 -1 8 25 53 59 100 70 97 81 120
67 138 -14 17 -63 15 -103 -4 -29 -13 -61 -52 -158 -188 -12 -17 -18 -18 -48
-7 -19 7 -44 14 -56 17 -42 8 -73 24 -79 38 -3 9 -1 36 4 61 11 52 15 48 -85
78 l-51 15 -62 -46 -62 -46 -42 15 c-23 8 -41 20 -41 29 0 8 95 86 210 173
205 154 211 157 250 152 22 -3 46 -12 54 -20z m7072 -255 c136 -41 243 -142
270 -253 6 -26 9 -77 6 -112 -4 -59 -17 -88 -154 -352 -543 -1042 -1010 -1924
-1037 -1960 -103 -133 -266 -207 -456 -206 -160 0 -272 45 -364 143 -72 77
-90 126 -91 245 0 115 -9 93 183 443 108 194 188 341 742 1352 156 283 296
531 311 552 57 71 198 147 310 167 77 14 203 6 280 -19z m-6136 6 c19 -8 35
-21 35 -29 0 -10 -230 -357 -275 -415 -7 -8 -81 28 -83 41 -4 17 266 417 280
417 5 0 24 -7 43 -14z m22 -146 c49 -19 53 -32 31 -127 -10 -47 -17 -90 -16
-94 2 -5 48 27 103 71 55 44 103 80 107 80 4 0 28 -7 53 -16 46 -15 47 -15 80
10 35 27 60 32 85 16 12 -7 13 -15 3 -40 -11 -29 -10 -32 13 -41 14 -5 29 -9
34 -9 17 0 20 -34 5 -56 -18 -28 -14 -28 -66 -8 -34 14 -42 15 -53 3 -22 -24
-106 -151 -106 -160 0 -10 8 -14 53 -23 43 -10 26 -76 -20 -76 -36 0 -108 30
-125 53 -29 37 -21 69 38 161 31 48 54 89 52 91 -3 3 -86 -57 -186 -133 -221
-170 -250 -184 -337 -157 -58 17 -68 30 -49 67 17 32 12 31 52 17 23 -8 40 -8
64 0 71 24 76 34 108 205 17 87 30 162 30 167 0 12 12 11 47 -1z m692 -96 c10
-22 9 -31 -4 -50 -20 -31 -49 -30 -80 0 -38 38 -18 76 41 76 24 0 34 -6 43
-26z m-71 -97 c7 -6 11 -18 9 -27 -5 -21 -185 -290 -194 -290 -20 0 -73 26
-77 37 -3 8 38 79 91 159 95 143 97 145 127 138 17 -3 37 -11 44 -17z m8956
-51 c68 -28 70 -136 5 -226 -40 -56 -89 -76 -144 -60 -63 19 -85 45 -85 103 0
60 49 161 89 182 33 18 93 19 135 1z m-8677 -26 c24 -10 48 -30 54 -44 10 -22
14 -23 41 -14 71 25 239 -35 238 -85 0 -7 -12 -20 -25 -30 -25 -18 -26 -18
-54 2 -41 30 -79 42 -107 35 -34 -9 -30 -28 12 -60 126 -97 52 -239 -107 -205
-60 13 -117 36 -140 57 -11 10 -40 16 -81 18 -103 3 -179 62 -178 139 1 61 67
153 133 186 56 28 155 28 214 1z m8933 -49 c12 -8 4 -33 -45 -146 -32 -75 -62
-138 -66 -141 -9 -5 -59 17 -59 27 0 4 14 38 31 76 55 121 54 116 18 111 -25
-4 -33 0 -42 19 -13 29 -10 32 50 48 58 16 93 18 113 6z m7335 -61 c50 -5 113
-11 140 -13 28 -3 69 -10 93 -17 34 -11 42 -18 42 -37 0 -17 -6 -23 -22 -23
-38 0 -7 -17 72 -39 41 -11 134 -37 205 -57 72 -20 142 -45 158 -56 15 -11 27
-16 27 -12 0 4 7 -1 15 -12 8 -10 15 -14 15 -7 0 7 7 10 16 6 11 -4 12 -8 4
-13 -8 -5 -7 -9 4 -13 9 -4 19 -6 21 -7 3 0 15 -9 27 -20 12 -11 28 -20 35
-20 8 0 11 -4 8 -10 -3 -5 -2 -10 4 -10 14 0 106 -91 114 -112 3 -10 13 -18
21 -18 12 0 76 -89 76 -106 0 -3 9 -17 19 -30 13 -17 21 -20 24 -12 3 8 6 6 6
-5 1 -10 8 -25 16 -33 8 -9 16 -26 16 -40 2 -42 4 -45 22 -58 9 -7 17 -19 17
-27 0 -25 59 -184 70 -187 5 -2 10 -23 10 -47 0 -24 5 -47 10 -50 6 -3 10 -28
10 -55 0 -27 4 -51 8 -54 9 -5 7 -134 -2 -143 -3 -3 -3 -18 0 -33 6 -27 5 -27
-53 -29 -32 -1 -73 -6 -91 -12 -33 -11 -57 -4 -35 9 12 7 25 88 26 162 1 50
-24 230 -32 226 -3 -2 -7 17 -8 42 -1 28 -8 51 -17 58 -19 13 -39 62 -38 90 1
11 -8 31 -20 44 -12 13 -23 37 -25 54 -2 17 -10 34 -18 39 -8 4 -15 15 -15 22
0 8 -6 15 -13 15 -7 0 -18 14 -24 30 -9 23 -18 30 -37 30 -16 0 -26 6 -26 15
0 8 -16 29 -36 47 -20 18 -47 44 -60 57 -13 13 -24 21 -24 16 0 -4 -9 3 -19
16 -11 13 -15 27 -10 30 5 3 13 20 18 37 8 27 7 34 -9 42 -27 15 -45 12 -71
-9 -24 -19 -24 -19 -4 -43 11 -12 13 -17 5 -10 -8 6 -23 12 -35 13 -11 0 -14
3 -7 6 9 3 4 12 -15 29 -15 13 -22 24 -16 24 20 0 45 47 38 69 -7 23 -63 42
-95 34 -28 -7 -20 -27 13 -31 50 -6 21 -52 -32 -52 -18 0 -20 5 -16 31 8 43
-1 64 -31 77 -39 19 -81 14 -104 -10 -11 -12 -20 -25 -20 -30 0 -4 -7 -8 -16
-8 -16 0 -16 6 -2 70 3 17 -32 25 -68 16 -26 -7 -33 -36 -9 -36 19 0 19 -14 1
-29 -10 -9 -16 -9 -21 -1 -5 8 -11 8 -21 -1 -11 -9 -14 -8 -15 7 0 11 -3 14
-6 6 -2 -6 -9 -9 -15 -6 -6 4 -27 9 -47 11 -20 2 -49 6 -66 7 -74 9 -296 7
-355 -3 -126 -21 -181 -34 -186 -42 -3 -5 -12 -9 -21 -9 -15 0 -31 -7 -163
-68 -30 -14 -74 -41 -97 -60 -23 -18 -45 -34 -50 -34 -21 -1 -34 -13 -76 -66
-25 -31 -57 -70 -72 -86 -29 -32 -80 -131 -95 -186 -13 -50 -24 -136 -24 -200
0 -76 21 -207 39 -243 8 -17 15 -35 15 -40 0 -19 50 -117 60 -117 5 0 7 -6 4
-14 -3 -7 2 -16 10 -19 9 -4 16 -12 16 -19 0 -10 -2 -10 -9 0 -7 11 -9 11 -14
-2 -4 -9 -14 -16 -24 -16 -30 0 -135 -54 -190 -99 -57 -45 -78 -50 -87 -23 -3
9 -10 24 -15 32 -5 8 -15 28 -22 43 -12 25 -14 26 -20 10 -7 -17 -8 -17 -8 1
-1 10 -13 43 -27 72 -14 29 -28 71 -31 94 -4 30 -9 38 -15 28 -7 -9 -8 -6 -5
10 3 12 2 22 -2 22 -9 0 -13 45 -14 200 -1 111 3 150 22 219 102 385 430 675
881 781 152 35 355 47 515 30z m353 -69 c23 -7 48 -9 54 -5 6 4 8 3 4 -4 -3
-5 0 -13 6 -16 18 -7 -42 4 -72 14 -14 4 -33 11 -43 14 -10 3 -15 11 -11 17 4
7 9 8 13 1 3 -5 25 -15 49 -21z m195 -71 c8 0 20 -7 27 -15 9 -10 9 -15 1 -15
-6 0 -11 5 -11 11 0 7 -10 9 -27 4 -16 -4 -25 -3 -21 0 4 4 -3 16 -15 27 l-22
20 27 -16 c15 -9 34 -16 41 -16z m-10809 -76 c3 -9 4 -20 0 -25 -3 -5 -1 -9 5
-9 5 0 14 7 19 16 10 19 52 13 73 -9 7 -7 25 -11 40 -9 33 5 69 -27 69 -62 0
-13 -9 -35 -20 -49 -18 -23 -24 -25 -50 -15 -17 5 -30 14 -30 20 0 5 -13 7
-30 3 -23 -5 -35 -1 -55 19 -13 13 -27 20 -30 15 -13 -21 -35 -8 -35 20 0 20
-6 30 -20 34 -11 3 -20 12 -20 20 0 39 71 65 84 31z m3840 2 c70 -29 85 -100
41 -193 -36 -79 -65 -103 -120 -103 -128 0 -169 86 -103 218 40 80 107 109
182 78z m6871 -37 c-3 -8 -16 -16 -29 -17 -20 -1 -23 2 -18 21 3 12 10 25 16
29 15 10 38 -15 31 -33z m-19969 19 c-10 -5 -23 -5 -33 1 -15 8 -11 10 15 9
26 -1 30 -3 18 -10z m78 -17 c4 -5 -3 -7 -14 -4 -23 6 -26 13 -6 13 8 0 17 -4
20 -9z m9511 -32 c4 -5 4 -21 1 -33 -5 -19 -11 -22 -31 -18 -25 4 -30 17 -19
46 7 18 39 22 49 5z m3752 0 c113 -42 93 -150 -37 -199 -33 -12 -60 -26 -60
-29 0 -4 25 -15 55 -25 57 -18 62 -24 45 -56 -10 -18 -13 -18 -63 -4 -140 40
-177 56 -177 74 0 25 13 33 114 74 84 34 126 59 126 77 0 4 -7 15 -16 24 -13
12 -31 16 -68 13 -47 -3 -51 -1 -54 21 -2 13 2 28 10 32 18 12 91 11 125 -2z
m-13184 -6 c-7 -2 -19 -2 -25 0 -7 3 -2 5 12 5 14 0 19 -2 13 -5z m267 -77 c0
-2 -9 -6 -20 -9 -11 -3 -18 -1 -14 4 5 9 34 13 34 5z m130 -36 c0 -5 -5 -10
-11 -10 -5 0 -7 5 -4 10 3 6 8 10 11 10 2 0 4 -4 4 -10z m19670 -15 c0 -8 -2
-15 -4 -15 -2 0 -6 7 -10 15 -3 8 -1 15 4 15 6 0 10 -7 10 -15z m-19570 -30
c23 -9 28 -14 15 -14 -11 0 -31 6 -45 14 -31 18 -16 18 30 0z m75 -25 c-3 -5
-12 -7 -20 -3 -21 7 -19 13 6 13 11 0 18 -4 14 -10z m165 -50 c8 -5 11 -10 5
-10 -5 0 -17 5 -25 10 -8 5 -10 10 -5 10 6 0 17 -5 25 -10z m13438 -46 c48
-19 67 -53 65 -112 -2 -61 -49 -150 -91 -175 -44 -26 -111 -16 -155 22 -27 25
-31 34 -30 79 1 68 41 155 85 182 40 24 74 25 126 4z m-4958 -61 c14 -10 36
-16 51 -15 33 4 59 -21 59 -56 0 -56 -51 -92 -79 -58 -7 8 -27 14 -47 14 -46
0 -64 17 -64 59 0 68 31 90 80 56z m5203 -7 c72 -26 92 -62 65 -120 -6 -14
-19 -28 -30 -31 -14 -5 -16 -10 -8 -25 18 -34 11 -70 -21 -102 -28 -29 -34
-30 -88 -25 -32 2 -79 14 -105 25 -37 17 -46 26 -46 46 0 36 13 39 60 15 70
-37 150 -26 133 17 -3 7 -25 21 -49 30 -34 13 -44 22 -44 39 0 31 5 33 51 25
52 -10 79 -3 79 21 0 24 -13 31 -79 38 -52 6 -56 8 -59 34 -3 26 -2 27 50 27
29 -1 70 -7 91 -14z m-12836 -152 c-3 -3 -12 -4 -19 -1 -8 3 -5 6 6 6 11 1 17
-2 13 -5z m198 -64 c3 -5 1 -10 -4 -10 -6 0 -11 5 -11 10 0 6 2 10 4 10 3 0 8
-4 11 -10z m13625 -66 c63 -25 84 -82 60 -163 -5 -19 -8 -36 -6 -38 2 -2 47
23 100 57 94 58 117 67 150 54 21 -8 20 -22 -9 -106 l-25 -73 21 -16 c30 -23
18 -63 -18 -56 -19 3 -26 -1 -33 -18 -12 -30 -20 -34 -49 -24 -19 8 -22 14
-18 39 6 28 4 29 -51 45 -31 8 -67 20 -80 25 -18 8 -29 5 -52 -11 -24 -18 -38
-21 -86 -17 -49 4 -61 10 -87 38 -27 30 -29 38 -24 90 6 68 45 149 84 172 35
22 72 22 123 2z m-6148 -97 c7 -6 25 -13 41 -14 38 -1 57 -20 57 -57 -1 -60
-37 -81 -85 -50 -13 9 -29 13 -34 9 -6 -3 -24 1 -41 10 -22 12 -30 23 -30 43
0 57 56 93 92 59z m3579 -238 c30 -15 72 -43 91 -63 l36 -38 -16 -44 c-9 -24
-20 -44 -24 -44 -4 0 -8 -7 -8 -15 0 -21 -4 -20 -71 20 -32 19 -82 41 -111 50
-60 17 -160 20 -190 4 -30 -16 -31 -7 -8 52 38 96 61 110 170 106 56 -2 89 -9
131 -28z m-3548 -133 c3 -8 15 -12 30 -9 56 11 86 -42 57 -98 -12 -22 -52 -25
-73 -5 -8 8 -20 14 -28 13 -8 0 -29 6 -46 13 -40 18 -42 42 -7 75 30 28 59 32
67 11z m11411 -77 c14 -7 23 -16 20 -21 -3 -5 0 -15 6 -23 9 -11 9 -15 1 -15
-6 0 -11 -5 -11 -11 0 -5 5 -7 10 -4 6 3 10 1 10 -4 0 -6 -11 -11 -25 -11 -25
0 -49 -34 -38 -52 5 -10 -51 -93 -94 -138 -19 -19 -43 -54 -55 -77 -12 -24
-27 -43 -34 -43 -6 0 -14 -7 -18 -15 -3 -8 -12 -15 -21 -15 -8 0 -15 -4 -15
-9 0 -4 -23 -31 -51 -60 -36 -35 -60 -51 -78 -51 -14 0 -37 -3 -51 -7 l-25 -7
25 -6 c20 -5 13 -9 -40 -22 l-64 -16 -54 54 c-29 30 -57 54 -62 54 -26 0 -5
19 41 38 78 33 183 107 239 170 44 49 100 147 139 245 6 16 25 34 44 42 39 17
166 19 201 4z m-8898 -52 c55 -29 96 -62 112 -93 9 -16 6 -31 -15 -72 -14 -29
-31 -52 -37 -52 -6 0 -29 14 -50 30 -77 59 -214 93 -289 72 -36 -10 -38 -10
-31 11 18 58 55 115 81 125 64 25 155 17 229 -21z m-1295 -197 c133 -111 197
-159 208 -155 206 81 556 205 564 201 7 -2 95 -76 197 -164 l185 -159 39 13
c21 8 42 12 45 9 9 -9 10 -35 1 -30 -5 3 -21 -6 -35 -21 -17 -17 -33 -24 -46
-21 -10 3 -22 1 -25 -4 -3 -5 -21 -9 -40 -9 -21 0 -33 -4 -29 -10 12 -19 -20
-10 -60 17 -37 25 -184 143 -245 196 -52 46 -58 49 -77 38 -10 -6 -101 -41
-203 -77 -102 -36 -222 -80 -268 -96 l-83 -31 -24 23 c-14 13 -25 20 -25 15 0
-5 -7 0 -15 11 -8 10 -15 16 -15 12 0 -5 -8 0 -18 10 -17 16 -68 58 -129 107
-14 11 -54 46 -90 78 -36 31 -70 57 -77 57 -17 0 -188 -62 -455 -165 -51 -20
-96 -34 -98 -31 -3 3 5 31 18 62 18 42 32 60 54 70 46 21 539 213 547 214 4 0
93 -72 199 -160z m3041 -6 c92 -39 128 -60 128 -74 0 -16 -229 -182 -241 -174
-7 4 -9 3 -6 -3 4 -6 0 -16 -8 -23 -10 -8 -15 -9 -15 -2 0 14 -28 5 -54 -17
-18 -15 -19 -15 -13 13 6 33 0 56 -15 56 -5 0 -7 -4 -4 -9 3 -4 -6 -7 -19 -5
-14 1 -25 -1 -25 -5 0 -4 -8 -7 -18 -8 -10 -1 -148 -45 -307 -97 -159 -53
-294 -96 -300 -96 -6 0 -84 63 -173 139 l-163 140 -42 -13 c-23 -8 -89 -30
-147 -49 -131 -43 -189 -55 -172 -35 6 8 8 19 3 24 -5 5 -11 21 -15 36 -6 25
-3 28 76 58 171 66 333 121 350 118 10 -2 89 -65 177 -140 l159 -138 357 123
357 123 20 47 c11 26 22 47 23 47 2 0 41 -16 87 -36z m-4231 -20 c9 -8 18 -11
22 -8 3 4 18 3 32 0 59 -15 54 -116 -6 -116 -15 0 -31 5 -34 10 -4 6 -10 8
-14 6 -4 -3 -25 1 -46 8 -37 13 -39 16 -41 57 -1 24 3 50 9 57 12 15 54 8 78
-14z m257 -82 c20 -13 3 -44 -22 -40 -27 4 -36 48 -9 48 10 0 24 -4 31 -8z
m395 -362 c199 -61 427 -131 507 -155 80 -24 278 -84 440 -134 162 -49 464
-141 670 -204 206 -63 741 -226 1189 -363 488 -149 815 -254 818 -262 8 -19
-29 -123 -45 -130 -16 -6 -20 -4 -417 117 -165 51 -397 121 -515 157 -328 100
-454 139 -585 179 -66 21 -172 53 -235 72 -63 19 -142 43 -175 53 -85 26 -504
154 -885 272 -179 55 -370 113 -425 130 -55 16 -165 50 -245 75 -206 64 -363
111 -453 138 -43 13 -81 26 -84 29 -12 12 51 136 69 136 5 0 172 -50 371 -110z
m6137 -35 c279 -53 599 -194 649 -288 11 -21 10 -28 -8 -58 -12 -19 -21 -31
-21 -27 0 3 -33 -25 -72 -64 -40 -39 -109 -101 -154 -139 -92 -76 -96 -77
-205 -27 -103 48 -128 57 -190 73 -96 25 -198 33 -298 24 -124 -11 -191 -33
-326 -106 -51 -27 -170 -156 -213 -230 -26 -44 -50 -73 -63 -76 -12 -3 -149
26 -308 67 l-286 72 3 40 c4 50 68 183 129 265 192 262 519 443 883 489 104
13 378 4 480 -15z m-13098 -276 c101 -34 224 -131 211 -166 -4 -9 -24 -33 -45
-54 -21 -20 -38 -41 -38 -46 0 -5 -11 -19 -25 -31 -14 -12 -25 -29 -25 -38 0
-21 -14 -15 -102 44 -40 27 -100 59 -133 72 -71 27 -85 38 -67 49 8 4 10 15 6
26 -5 13 -4 16 4 11 8 -5 12 0 12 13 0 12 6 21 14 21 8 0 17 7 20 16 5 14 4
15 -9 4 -36 -30 4 41 43 78 31 27 56 28 134 1z m13940 -146 c22 -21 70 -74
105 -118 35 -44 67 -85 73 -92 19 -23 90 -164 90 -178 0 -8 4 -15 9 -15 5 0
12 -12 16 -27 3 -15 10 -30 13 -33 4 -3 18 -45 31 -95 30 -113 41 -375 19
-440 -18 -54 -37 -55 -190 -11 -233 66 -398 106 -439 106 l-41 0 6 33 c18 86
18 167 1 242 -30 124 -123 287 -173 301 -18 5 -21 11 -16 28 9 31 156 160 264
233 30 21 72 52 93 70 51 45 85 44 139 -4z m-13191 -199 c129 -41 380 -123
559 -180 179 -58 413 -134 520 -169 107 -35 337 -109 510 -165 173 -55 351
-113 395 -128 l79 -27 14 -57 14 -58 -38 -70 c-22 -38 -43 -71 -48 -72 -6 -2
-14 13 -19 32 -11 47 -21 54 -97 78 -36 11 -162 52 -280 90 -118 39 -390 127
-605 197 -214 70 -518 168 -675 220 -157 51 -370 121 -475 155 -104 34 -192
63 -194 65 -5 6 90 165 99 165 4 0 113 -34 241 -76z m-827 -46 c53 -63 67 -88
47 -88 -5 0 -33 27 -62 59 l-53 60 -13 -30 c-6 -16 -17 -29 -23 -29 -12 0 -12
0 1 41 13 39 29 61 39 57 4 -2 33 -33 64 -70z m16676 -119 c52 -6 113 -15 135
-21 22 -6 47 -12 55 -13 8 -1 30 -5 49 -9 26 -6 30 -10 20 -18 -11 -8 -10 -9
4 -4 9 3 32 3 49 -1 27 -5 29 -7 13 -14 -20 -7 -20 -8 0 -9 11 -1 28 -1 39 0
10 1 15 -3 12 -8 -3 -5 6 -13 21 -17 21 -5 24 -8 12 -16 -19 -12 -42 -11 -34
1 9 15 -13 12 -40 -6 -29 -19 -34 -40 -7 -25 14 7 21 5 30 -10 15 -24 15 -29
-1 -29 -13 0 -47 -34 -47 -48 0 -4 -8 -15 -17 -23 -10 -9 -24 -25 -32 -37 -8
-12 -27 -26 -43 -33 -15 -6 -28 -15 -28 -20 0 -5 -9 -9 -20 -9 -11 0 -20 -4
-20 -10 0 -5 -16 -10 -36 -10 -20 0 -50 -7 -67 -16 -18 -9 -41 -21 -51 -27
-11 -5 -48 -12 -83 -15 -63 -5 -87 -21 -35 -23 26 -2 26 -2 2 -6 -53 -8 -133
-29 -185 -49 -11 -4 -25 -6 -32 -5 -6 1 -14 -3 -18 -9 -3 -5 -13 -10 -21 -10
-8 0 -42 -18 -75 -40 -33 -22 -64 -40 -68 -40 -7 0 -61 -53 -113 -110 -13 -14
-47 -63 -77 -109 -52 -79 -56 -83 -85 -78 -101 18 -253 49 -326 67 -150 36
-184 42 -236 43 l-51 1 17 55 c48 158 131 295 256 418 221 221 507 337 874
356 65 4 130 0 260 -14z m1025 -298 c30 -18 125 -108 125 -117 0 -3 10 -15 23
-28 39 -40 74 -83 93 -112 20 -31 32 -47 51 -68 14 -16 113 -208 129 -251 7
-16 15 -39 19 -50 5 -11 9 -22 9 -25 1 -3 4 -9 7 -15 7 -11 37 -140 46 -195 3
-19 5 -94 5 -165 0 -133 -26 -286 -58 -345 -7 -14 -22 -46 -33 -71 -28 -64
-109 -184 -164 -242 l-45 -49 -34 24 c-43 30 -79 60 -229 193 -187 165 -229
199 -255 208 -31 11 -30 28 2 58 34 31 85 112 107 168 39 96 41 254 5 371 -31
102 -162 318 -222 365 l-31 25 30 28 c17 15 59 52 95 81 36 30 72 61 81 70 8
9 50 45 92 81 42 35 77 68 77 72 0 15 45 8 75 -11z m-18205 -62 c0 -5 5 -7 10
-4 6 4 17 1 25 -5 8 -7 15 -9 15 -6 0 15 119 -57 151 -91 19 -20 29 -33 22
-29 -6 3 -18 -2 -25 -11 -24 -32 -86 -73 -111 -73 -14 0 -30 7 -37 15 -7 8
-19 15 -27 15 -11 0 -14 7 -11 24 4 20 1 23 -19 21 -19 -2 -23 2 -21 19 2 11
9 20 16 19 22 -5 13 34 -10 40 -18 5 -19 8 -8 22 11 13 10 15 -1 10 -8 -3 -23
1 -34 9 -19 15 -19 15 10 16 26 1 27 3 10 10 -17 7 -15 9 13 9 17 1 32 -4 32
-10z m241 -176 c13 -16 12 -17 -3 -4 -10 7 -18 15 -18 17 0 8 8 3 21 -13z
m634 -222 c443 -145 1932 -639 1980 -656 38 -14 41 -19 53 -70 l13 -55 -42
-81 c-23 -44 -45 -77 -49 -72 -4 4 -13 25 -19 45 l-12 37 -1175 391 c-646 216
-1174 397 -1174 403 0 21 94 168 105 164 5 -3 150 -50 320 -106z m-1018 70
c62 -21 83 -37 83 -62 0 -11 4 -19 9 -19 12 0 23 -29 15 -41 -7 -12 -58 41
-59 60 0 8 -15 24 -34 35 l-34 20 7 -25 c27 -87 12 -94 -27 -14 -15 31 -27 58
-27 60 0 8 12 5 67 -14z m14241 -144 c15 6 15 5 3 -11 -13 -16 -12 -17 12 -11
21 6 27 4 27 -9 0 -9 -5 -16 -11 -16 -5 0 -8 -4 -4 -10 3 -5 13 -6 23 -3 9 3
14 3 10 -2 -11 -11 12 -36 25 -28 6 4 8 0 4 -9 -3 -9 0 -21 6 -28 30 -33 -53
34 -92 73 -28 30 -41 50 -35 58 5 9 9 10 11 2 3 -7 12 -9 21 -6z m21 -108 c44
-49 54 -64 31 -46 -19 15 -51 35 -72 44 -30 13 -37 21 -40 49 -2 20 0 33 6 31
5 -2 39 -37 75 -78z m2433 -389 c-12 -16 -22 -36 -22 -43 0 -8 -7 -20 -15 -27
-8 -7 -15 -21 -15 -31 0 -10 -5 -21 -11 -24 -6 -4 -14 -17 -18 -28 -8 -20 -9
-19 -26 13 -15 29 -16 41 -6 83 6 27 17 63 25 81 7 17 29 66 47 110 l34 79 14
-92 c14 -90 14 -92 -7 -121z m45 148 c-3 -8 -6 -5 -6 6 -1 11 2 17 5 13 3 -3
4 -12 1 -19z m22 -68 c1 -13 0 -13 -9 0 -5 8 -9 24 -9 35 l0 20 9 -20 c5 -11
9 -27 9 -35z m-9174 -40 c248 -23 466 -85 700 -201 465 -230 788 -636 897
-1126 19 -84 22 -130 22 -318 1 -221 -10 -328 -39 -390 -7 -16 -23 -58 -36
-92 -12 -35 -25 -63 -29 -63 -19 0 -200 63 -200 70 0 4 7 27 15 50 49 138 81
358 70 480 -8 91 -41 267 -56 297 -6 11 -8 26 -5 32 4 5 0 27 -9 47 -8 20 -15
46 -16 58 0 11 -3 15 -6 9 -2 -7 -9 -13 -14 -13 -6 0 -5 9 1 21 9 16 7 27 -7
52 -11 18 -29 58 -42 89 -14 34 -28 55 -34 51 -5 -3 -7 -2 -4 4 10 17 -112
187 -198 274 -287 293 -644 456 -1065 488 -403 30 -796 -72 -1126 -292 -157
-104 -265 -204 -394 -363 -103 -127 -237 -403 -255 -524 -8 -53 -16 -94 -21
-101 -2 -4 0 -10 6 -14 6 -4 8 -11 4 -16 -3 -5 -10 -6 -16 -3 -6 4 -6 -1 1
-14 8 -16 8 -34 -1 -69 -7 -29 -12 -113 -11 -213 1 -143 4 -178 27 -263 14
-54 42 -135 62 -180 20 -45 37 -90 38 -99 1 -12 -25 -30 -89 -62 -49 -24 -94
-42 -98 -39 -5 3 -25 39 -44 81 -20 43 -39 79 -43 82 -8 6 -54 197 -72 295
-19 106 -16 410 5 522 168 901 1089 1543 2082 1453z m7038 -50 c-3 -12 -8 -19
-11 -16 -5 6 5 36 12 36 2 0 2 -9 -1 -20z m-12808 -815 c330 -112 621 -211
647 -220 44 -16 49 -20 64 -70 l17 -53 -48 -88 c-51 -94 -49 -93 -74 -23 -7
21 -23 31 -68 47 -126 44 -490 168 -708 242 -126 43 -284 97 -350 120 -168 59
-906 311 -1107 378 -93 31 -168 61 -168 65 0 5 23 47 50 93 l51 83 547 -185
c301 -102 817 -277 1147 -389z m5714 545 c215 -19 401 -72 579 -165 271 -142
473 -344 597 -599 89 -182 125 -339 125 -540 0 -105 -23 -273 -40 -290 -8 -8
-196 26 -207 38 -3 2 1 21 7 43 20 70 24 298 6 400 -76 436 -416 780 -888 899
-141 36 -397 45 -550 19 -579 -96 -1020 -532 -1069 -1058 -28 -301 54 -565
248 -793 30 -36 53 -69 51 -73 -2 -5 -36 -37 -77 -72 l-74 -63 -53 57 c-94
101 -188 254 -242 392 -43 111 -59 181 -73 318 -44 452 163 885 565 1185 228
171 550 288 841 305 108 7 144 6 254 -3z m-8109 -26 c0 -9 19 -34 42 -55 44
-40 39 -50 -12 -24 -33 17 -69 64 -63 83 7 18 33 15 33 -4z m76 6 c19 -8 24
-14 17 -21 -7 -7 -22 -4 -49 10 -31 16 -34 20 -17 21 12 0 34 -5 49 -10z
m18367 -32 c-5 -7 -18 -35 -28 -63 -18 -51 -85 -195 -90 -195 -1 0 -18 -7 -38
-15 l-35 -14 15 67 c8 37 21 80 29 96 9 19 11 33 5 39 -7 7 5 17 32 31 23 11
57 31 76 43 38 26 48 29 34 11z m-5018 -1188 c346 -74 642 -245 864 -501 87
-100 116 -138 114 -148 -1 -5 7 -17 17 -26 11 -10 20 -24 20 -30 0 -7 9 -24
20 -37 10 -14 17 -28 13 -31 -3 -3 2 -13 11 -22 9 -9 16 -23 16 -31 0 -8 5
-14 10 -14 6 0 10 -7 10 -15 0 -9 9 -33 20 -55 36 -71 26 -82 -90 -94 -57 -6
-164 -24 -325 -55 -27 -6 -86 -15 -130 -22 -44 -6 -89 -13 -100 -16 -11 -2
-121 -22 -245 -44 -124 -21 -260 -46 -303 -54 -104 -20 -128 -19 -165 9 -18
13 -42 22 -55 20 -125 -20 -539 -90 -677 -115 -96 -16 -202 -34 -235 -40 -33
-5 -128 -20 -212 -33 -83 -14 -160 -22 -172 -19 -22 6 -43 54 -61 137 -11 52
-1 186 25 322 38 202 152 428 287 571 92 98 127 125 157 118 21 -4 41 3 87 34
84 56 184 104 299 144 85 29 143 43 305 71 14 3 108 3 210 1 141 -3 209 -9
285 -25z m-1385 -2035 c11 -13 10 -14 -4 -9 -9 3 -16 10 -16 15 0 13 6 11 20
-6z m750 -527 c0 -7 -7 -35 -14 -63 l-14 -50 -1 47 c-1 25 2 53 5 62 7 19 24
21 24 4z"/>
<path d="M12877 18785 c-20 -24 -37 -48 -37 -53 0 -11 34 -22 68 -22 23 0 23
2 16 58 -3 31 -7 58 -8 59 -1 1 -19 -17 -39 -42z"/>
<path d="M6956 15039 c-25 -29 -27 -49 -4 -49 12 0 68 58 68 71 0 20 -40 7
-64 -22z"/>
<path d="M7019 14994 c-10 -13 -10 -17 2 -25 23 -15 79 -11 79 5 0 17 -5 21
-41 30 -18 4 -31 1 -40 -10z"/>
<path d="M21436 15022 c-3 -5 -8 -27 -12 -50 l-6 -41 38 -7 c31 -6 40 -3 55
15 24 29 13 60 -27 77 -39 16 -41 17 -48 6z"/>
<path d="M6737 14752 c-28 -29 -35 -52 -16 -52 22 0 49 22 64 50 14 28 14 30
-3 30 -10 0 -30 -13 -45 -28z"/>
<path d="M6855 14700 c4 -6 11 -8 16 -5 14 9 11 15 -7 15 -8 0 -12 -5 -9 -10z"/>
<path d="M9542 14523 c-28 -43 -50 -79 -48 -81 8 -7 181 -52 202 -52 15 0 34
20 68 70 25 38 46 73 46 78 0 7 -184 62 -207 62 -6 0 -33 -35 -61 -77z"/>
<path d="M9790 14465 c-28 -41 -50 -78 -50 -83 0 -7 188 -62 211 -62 12 0 101
152 93 160 -5 4 -53 19 -107 33 l-97 26 -50 -74z"/>
<path d="M9427 14350 c-26 -38 -48 -75 -49 -81 -3 -12 155 -58 199 -59 20 0
52 40 116 146 4 7 -27 20 -92 38 -54 14 -105 26 -113 26 -8 0 -36 -31 -61 -70z"/>
<path d="M9669 14284 c-28 -42 -47 -80 -42 -84 7 -7 188 -60 205 -60 12 0 108
155 100 162 -6 5 -194 58 -208 58 -2 0 -26 -34 -55 -76z"/>
<path d="M9302 14163 c-28 -43 -50 -79 -48 -80 8 -8 184 -53 206 -53 20 1 34
15 73 76 27 42 46 78 44 80 -8 8 -181 54 -203 54 -15 0 -35 -21 -72 -77z"/>
<path d="M8697 14115 l-57 -85 53 -14 c177 -50 166 -52 228 40 28 42 47 79 42
83 -4 4 -46 18 -93 30 -47 12 -92 24 -101 27 -11 3 -33 -21 -72 -81z"/>
<path d="M9554 14109 c-25 -40 -48 -77 -50 -83 -4 -10 36 -23 198 -64 19 -5
125 145 111 158 -7 8 -188 60 -206 60 -4 0 -28 -32 -53 -71z"/>
<path d="M8942 14053 c-28 -43 -48 -81 -44 -85 6 -6 187 -58 204 -58 9 0 108
141 108 155 0 10 -178 65 -208 65 -5 0 -32 -35 -60 -77z"/>
<path d="M8337 14013 c-70 -103 -72 -96 41 -126 54 -15 105 -27 113 -27 14 0
126 156 118 164 -6 6 -195 56 -211 56 -8 0 -35 -30 -61 -67z"/>
<path d="M9190 13992 c-25 -37 -45 -73 -45 -81 0 -15 180 -71 203 -63 15 5
116 152 109 158 -7 7 -186 54 -205 54 -10 0 -36 -29 -62 -68z"/>
<path d="M8572 13933 c-40 -60 -49 -79 -38 -85 25 -14 191 -55 204 -51 14 6
116 152 109 159 -8 9 -173 54 -197 54 -20 0 -35 -15 -78 -77z"/>
<path d="M9430 13920 c-29 -44 -51 -82 -48 -85 6 -6 190 -55 209 -55 19 0 115
148 103 160 -7 7 -190 60 -207 60 -2 0 -28 -36 -57 -80z"/>
<path d="M7966 13890 c-31 -44 -56 -83 -56 -88 0 -13 201 -62 217 -54 15 9
115 153 110 158 -2 2 -39 15 -83 28 -143 42 -125 46 -188 -44z"/>
<path d="M8820 13870 c-29 -44 -51 -83 -48 -86 7 -7 180 -54 200 -54 17 0 110
122 112 148 1 11 -21 22 -79 38 -143 41 -125 45 -185 -46z"/>
<path d="M8210 13825 c-27 -41 -50 -79 -50 -84 0 -6 26 -18 58 -26 31 -9 70
-21 86 -26 59 -19 69 -13 125 67 29 42 49 80 44 84 -7 7 -188 60 -205 60 -4 0
-30 -34 -58 -75z"/>
<path d="M9066 13805 c-26 -40 -48 -78 -49 -82 -1 -8 173 -61 204 -62 11 -1
37 30 69 80 28 45 50 83 48 84 -5 5 -199 55 -212 55 -7 0 -34 -34 -60 -75z"/>
<path d="M8452 13755 c-29 -42 -52 -79 -52 -84 0 -7 184 -61 209 -61 11 0 111
143 111 158 0 9 -175 62 -203 62 -8 0 -37 -34 -65 -75z"/>
<path d="M9309 13734 c-28 -42 -48 -79 -44 -82 11 -12 197 -60 211 -55 14 5
104 137 104 153 0 9 -32 20 -145 49 -66 18 -72 15 -126 -65z"/>
<path d="M7878 13763 c-29 -35 -101 -143 -97 -147 6 -6 193 -56 209 -56 14 0
128 156 119 164 -7 6 -186 56 -202 56 -8 0 -21 -8 -29 -17z"/>
<path d="M8701 13694 c-28 -41 -51 -80 -51 -87 0 -16 209 -74 219 -60 50 72
101 156 97 160 -2 3 -52 18 -109 33 l-104 28 -52 -74z"/>
<path d="M7216 13649 c-32 -44 -56 -82 -55 -84 8 -7 184 -55 204 -55 14 0 36
22 69 68 27 37 51 74 53 83 4 12 -16 22 -89 42 -52 15 -101 27 -109 27 -9 0
-41 -36 -73 -81z"/>
<path d="M8081 13638 c-28 -40 -51 -78 -51 -83 0 -8 187 -66 211 -65 9 0 109
146 109 159 0 6 -26 18 -57 26 -32 9 -71 21 -87 26 -60 19 -72 13 -125 -63z"/>
<path d="M8995 13692 c-17 -12 -107 -154 -101 -159 4 -4 203 -63 213 -63 9 0
111 166 105 171 -4 3 -45 16 -92 28 -47 12 -92 24 -100 26 -8 3 -19 1 -25 -3z"/>
<path d="M7465 13592 c-30 -42 -55 -82 -55 -88 0 -10 172 -64 204 -64 15 0
132 157 123 166 -2 3 -53 18 -111 34 l-106 29 -55 -77z"/>
<path d="M8325 13568 c-38 -58 -51 -84 -42 -89 24 -14 200 -58 209 -53 16 10
110 156 103 162 -5 6 -191 61 -207 62 -4 0 -32 -37 -63 -82z"/>
<path d="M9190 13555 c-27 -41 -50 -79 -50 -84 0 -6 19 -15 43 -21 23 -6 64
-18 91 -26 82 -23 86 -22 139 62 26 41 47 78 47 83 0 7 -185 61 -209 61 -6 0
-33 -34 -61 -75z"/>
<path d="M7764 13592 c-18 -12 -114 -154 -109 -162 5 -8 214 -65 219 -59 47
60 108 161 100 168 -5 4 -47 18 -93 31 -46 12 -89 24 -95 26 -6 2 -16 0 -22
-4z"/>
<path d="M8570 13500 c-29 -44 -51 -83 -48 -85 5 -5 144 -46 196 -58 19 -4 29
6 69 66 25 40 48 79 50 88 3 12 -17 21 -96 42 -55 15 -104 27 -109 27 -5 0
-33 -36 -62 -80z"/>
<path d="M7082 13463 l-62 -88 106 -28 c58 -16 112 -26 118 -24 17 7 108 135
110 155 1 11 -26 23 -99 43 -55 16 -102 29 -105 29 -3 0 -34 -39 -68 -87z"/>
<path d="M7951 13449 c-32 -46 -51 -83 -45 -88 16 -14 207 -62 214 -54 33 36
109 158 103 164 -8 7 -193 59 -209 59 -5 -1 -33 -37 -63 -81z"/>
<path d="M8820 13435 c-27 -41 -50 -79 -50 -84 0 -6 19 -15 43 -21 23 -6 64
-18 91 -26 81 -23 86 -21 139 62 26 41 47 79 47 83 0 8 -177 61 -205 61 -8 0
-37 -34 -65 -75z"/>
<path d="M7327 13395 c-31 -46 -54 -86 -50 -88 9 -6 201 -57 212 -57 9 0 109
141 113 159 2 8 -34 23 -97 42 -55 16 -104 29 -110 29 -5 -1 -36 -39 -68 -85z"/>
<path d="M8200 13384 c-28 -41 -50 -80 -48 -86 4 -12 198 -69 210 -62 13 9
108 148 108 160 0 10 -176 64 -208 64 -6 0 -34 -34 -62 -76z"/>
<path d="M9063 13360 c-29 -44 -49 -81 -45 -84 13 -8 190 -56 206 -56 14 0
116 142 116 162 0 4 -19 12 -42 18 -24 6 -65 18 -92 26 -83 24 -87 22 -143
-66z"/>
<path d="M7575 13329 c-31 -45 -53 -84 -48 -89 14 -12 204 -61 214 -55 12 8
109 152 109 162 0 7 -190 64 -212 63 -3 0 -32 -36 -63 -81z"/>
<path d="M8443 13310 c-61 -92 -64 -85 58 -119 112 -31 110 -32 168 55 28 42
51 79 51 84 0 8 -179 60 -207 60 -11 0 -38 -31 -70 -80z"/>
<path d="M7821 13260 c-30 -44 -51 -83 -47 -87 14 -14 201 -61 214 -54 20 12
112 155 104 162 -9 9 -181 59 -202 59 -8 0 -39 -36 -69 -80z"/>
<path d="M8690 13240 c-29 -44 -51 -82 -49 -84 8 -7 188 -56 207 -56 13 0 36
26 72 80 29 44 51 82 49 84 -8 8 -184 56 -205 56 -16 0 -35 -21 -74 -80z"/>
<path d="M7196 13209 c-32 -45 -54 -85 -49 -89 4 -4 52 -19 106 -34 79 -22
101 -25 113 -15 26 22 113 154 106 161 -8 7 -190 58 -208 58 -6 0 -37 -37 -68
-81z"/>
<path d="M8065 13188 c-30 -45 -53 -83 -52 -84 9 -8 212 -61 221 -58 12 5 120
164 114 169 -6 6 -196 55 -212 55 -9 0 -40 -36 -71 -82z"/>
<path d="M8988 13243 c-25 -30 -98 -141 -98 -151 0 -9 177 -62 209 -62 13 0
36 26 71 81 28 45 49 83 47 86 -3 2 -44 15 -91 28 -48 13 -94 26 -104 30 -11
3 -25 -2 -34 -12z"/>
<path d="M7488 13203 c-44 -52 -100 -145 -92 -152 14 -12 203 -63 213 -57 12
8 111 153 111 164 0 8 -180 62 -207 62 -5 0 -17 -8 -25 -17z"/>
<path d="M8312 13118 c-61 -95 -69 -82 76 -121 49 -14 94 -22 99 -18 14 9 103
146 103 159 0 6 -17 16 -37 21 -21 6 -60 17 -88 26 -89 27 -94 24 -153 -67z"/>
<path d="M7687 13065 l-57 -85 58 -16 c31 -9 79 -22 106 -30 27 -8 53 -14 58
-14 9 0 123 169 117 174 -8 6 -194 56 -210 56 -9 0 -41 -37 -72 -85z"/>
<path d="M8562 13049 c-29 -45 -52 -82 -50 -84 8 -8 185 -55 208 -55 20 0 32
11 57 53 18 28 42 66 53 83 l20 30 -95 27 c-52 15 -105 27 -117 27 -17 0 -36
-20 -76 -81z"/>
<path d="M7941 13005 c-29 -42 -51 -82 -48 -89 4 -9 184 -66 210 -66 8 0 121
169 116 174 -6 6 -195 56 -211 56 -8 0 -38 -34 -67 -75z"/>
<path d="M8817 12988 c-30 -46 -51 -87 -47 -92 11 -11 202 -64 215 -59 12 4
105 148 105 162 0 6 -26 18 -57 27 -32 9 -80 22 -107 30 -27 8 -51 14 -52 14
-2 0 -27 -37 -57 -82z"/>
<path d="M8185 12928 c-38 -58 -51 -84 -42 -89 11 -6 199 -59 210 -59 7 0 121
170 116 174 -7 7 -193 56 -211 56 -11 0 -39 -32 -73 -82z"/>
<path d="M8440 12864 c-29 -41 -49 -81 -47 -88 6 -14 202 -70 216 -62 12 8
115 166 110 170 -8 7 -189 56 -208 56 -14 0 -36 -23 -71 -76z"/>
<path d="M8690 12794 c-29 -41 -49 -81 -47 -88 4 -11 179 -66 210 -66 12 0
124 167 116 174 -8 7 -191 56 -209 56 -13 0 -36 -25 -70 -76z"/>
<path d="M10464 14518 c11 -53 46 -80 46 -35 0 26 -26 67 -42 67 -6 0 -8 -12
-4 -32z"/>
<path d="M6499 14429 c-30 -33 -38 -59 -16 -59 26 1 85 69 70 83 -12 13 -25 7
-54 -24z"/>
<path d="M10405 14230 c-3 -5 1 -10 9 -10 9 0 16 5 16 10 0 6 -4 10 -9 10 -6
0 -13 -4 -16 -10z"/>
<path d="M10520 14209 c0 -29 18 -59 35 -59 17 0 20 33 5 61 -14 25 -40 24
-40 -2z"/>
<path d="M6268 14118 c-27 -22 -50 -65 -39 -73 21 -13 81 42 81 75 0 14 -23
13 -42 -2z"/>
<path d="M21230 14042 c0 -5 14 -12 30 -14 19 -3 29 -1 27 6 -4 14 -57 21 -57
8z"/>
<path d="M21222 13978 c3 -7 20 -14 38 -16 30 -3 32 -2 21 12 -16 19 -65 22
-59 4z"/>
<path d="M10565 13888 c9 -42 13 -48 31 -48 16 0 19 33 4 61 -6 10 -18 19 -26
19 -12 0 -14 -7 -9 -32z"/>
<path d="M6021 13763 c-30 -36 -32 -53 -6 -53 17 0 77 69 70 81 -12 18 -34 8
-64 -28z"/>
<path d="M10610 13599 c0 -30 18 -59 37 -59 12 0 14 7 9 32 -9 45 -46 67 -46
27z"/>
<path d="M21115 13380 c-4 -6 -2 -17 4 -23 15 -15 25 -2 13 19 -7 12 -11 13
-17 4z"/>
<path d="M10650 13296 c0 -24 23 -56 41 -56 15 0 10 47 -7 64 -22 23 -34 20
-34 -8z"/>
<path d="M22140 13120 c0 -5 5 -10 11 -10 5 0 7 5 4 10 -3 6 -8 10 -11 10 -2
0 -4 -4 -4 -10z"/>
<path d="M22142 13080 c0 -14 2 -19 5 -12 2 6 2 18 0 25 -3 6 -5 1 -5 -13z"/>
<path d="M21901 12464 c0 -11 3 -14 6 -6 3 7 2 16 -1 19 -3 4 -6 -2 -5 -13z"/>
<path d="M18203 10760 c-1 -11 2 -20 8 -20 5 0 9 9 9 20 0 11 -4 20 -8 20 -4
0 -8 -9 -9 -20z"/>
<path d="M18145 10759 c-4 -6 -5 -12 -2 -15 2 -3 7 2 10 11 7 17 1 20 -8 4z"/>
<path d="M18140 10640 c0 -5 5 -10 10 -10 6 0 10 5 10 10 0 6 -4 10 -10 10 -5
0 -10 -4 -10 -10z"/>
<path d="M3807 10053 c-4 -3 -7 -11 -7 -17 0 -6 5 -5 12 2 6 6 9 14 7 17 -3 3
-9 2 -12 -2z"/>
<path d="M3797 10013 c-4 -3 -7 -11 -7 -17 0 -6 5 -5 12 2 6 6 9 14 7 17 -3 3
-9 2 -12 -2z"/>
<path d="M5505 9260 c3 -5 8 -10 11 -10 2 0 4 5 4 10 0 6 -5 10 -11 10 -5 0
-7 -4 -4 -10z"/>
<path d="M5173 11212 c-52 -73 -79 -120 -73 -126 15 -15 115 -19 155 -6 81 27
164 146 136 198 -10 19 -88 53 -120 51 -9 0 -53 -53 -98 -117z"/>
<path d="M5484 10989 c-16 -17 -16 -22 -4 -29 26 -17 86 -11 114 11 36 28 25
39 -38 39 -41 0 -57 -5 -72 -21z"/>
<path d="M9345 11303 c-112 -9 -244 -70 -319 -147 -28 -29 -101 -132 -162
-231 -62 -99 -153 -247 -204 -330 -51 -82 -108 -172 -125 -200 -18 -27 -120
-192 -227 -365 -243 -392 -220 -356 -424 -682 -224 -357 -211 -334 -223 -404
-20 -110 9 -195 90 -269 138 -125 410 -134 603 -21 97 57 145 119 318 406 503
839 1088 1819 1103 1849 26 51 24 164 -3 217 -27 52 -91 110 -156 140 -48 22
-166 45 -211 42 -11 -1 -38 -3 -60 -5z"/>
<path d="M6071 10842 c-27 -8 -49 -37 -38 -48 4 -4 28 -7 53 -7 33 0 51 5 67
21 11 12 18 24 15 27 -10 10 -72 14 -97 7z"/>
<path d="M10590 10930 c-160 -23 -282 -107 -372 -259 -50 -84 -155 -266 -166
-286 -3 -5 13 7 34 28 49 46 66 48 58 7 -6 -28 -3 -31 37 -50 24 -11 52 -20
62 -20 25 0 33 27 13 49 -12 14 -13 20 -3 30 10 10 5 18 -21 41 l-33 27 43 18
c27 11 80 19 143 22 86 4 108 2 159 -17 79 -30 150 -96 170 -158 16 -53 32
-171 21 -160 -4 4 -20 -12 -35 -35 -37 -58 -87 -99 -167 -139 -66 -32 -72 -33
-188 -33 -102 0 -127 3 -167 22 -115 53 -157 112 -158 221 0 35 5 72 10 83 6
10 7 19 2 19 -4 0 -117 -186 -249 -412 -133 -227 -354 -604 -491 -838 -137
-234 -260 -445 -272 -470 -16 -31 -25 -68 -28 -121 -4 -67 -1 -84 20 -130 121
-261 553 -293 787 -59 51 51 59 64 371 620 97 173 287 511 422 750 529 941
491 865 491 956 0 78 -27 137 -89 194 -97 89 -235 123 -404 100z m-379 -470
l24 -19 -26 -1 c-27 0 -54 21 -42 33 10 11 19 8 44 -13z m8 -56 c33 -24 11
-43 -23 -20 -28 18 -34 36 -13 36 7 0 23 -7 36 -16z m528 -256 c-3 -7 -5 -2
-5 12 0 14 2 19 5 13 2 -7 2 -19 0 -25z"/>
<path d="M10313 10443 c-18 -7 -16 -64 3 -91 38 -54 124 -67 124 -17 0 37 -17
73 -42 88 -27 17 -68 27 -85 20z m64 -28 c25 -17 40 -72 25 -87 -27 -27 -84
47 -68 87 7 19 16 19 43 0z"/>
<path d="M10496 10325 c-3 -8 -1 -15 4 -15 6 0 10 7 10 15 0 8 -2 15 -4 15 -2
0 -6 -7 -10 -15z"/>
<path d="M10519 10303 c-16 -18 -19 -24 -8 -20 9 3 22 0 28 -6 8 -8 11 -8 11
1 0 7 -5 12 -10 12 -7 0 -7 6 0 20 15 27 8 25 -21 -7z"/>
<path d="M4911 10678 c-29 -22 -49 -44 -44 -48 4 -5 24 -11 44 -15 l37 -7 12
52 c7 28 11 53 8 55 -2 2 -27 -14 -57 -37z"/>
<path d="M5515 10351 c-12 -5 -27 -16 -35 -26 -18 -22 0 -35 52 -35 37 0 101
41 86 55 -11 11 -82 15 -103 6z"/>
<path d="M11925 10559 c-82 -8 -140 -25 -206 -60 -105 -56 -143 -107 -325
-439 -189 -346 -514 -939 -817 -1490 -113 -207 -211 -397 -218 -423 -47 -190
96 -377 321 -417 186 -34 382 29 504 161 39 43 84 119 190 325 77 148 199 382
271 519 133 252 167 317 380 725 65 124 132 252 150 285 18 33 74 141 125 239
l94 180 0 75 c0 63 -5 85 -26 127 -71 136 -248 213 -443 193z m-835 -1900
c127 -59 164 -117 191 -296 22 -152 22 -146 7 -137 -8 5 -9 1 -5 -12 6 -17 6
-17 -5 -3 -19 24 -50 17 -99 -23 -119 -97 -283 -132 -432 -93 -55 14 -134 56
-149 79 -4 6 -8 7 -8 3 0 -22 -34 29 -46 70 -49 163 21 317 179 394 86 42 119
48 222 46 72 -2 101 -8 145 -28z"/>
<path d="M10715 8570 c-12 -20 24 -59 65 -71 22 -7 40 -15 40 -20 0 -12 -27
-18 -51 -12 -15 4 -20 3 -15 -5 4 -7 27 -12 51 -12 50 0 64 20 43 65 -20 43
-116 83 -133 55z m87 -27 c23 -20 23 -33 0 -33 -21 0 -62 27 -62 41 0 15 42
10 62 -8z"/>
<path d="M10939 8434 c-22 -25 -22 -26 -3 -16 12 6 24 18 28 27 8 21 3 19 -25
-11z"/>
<path d="M15514 10123 c-9 -10 -28 -41 -41 -70 -29 -63 -20 -93 27 -93 35 0
72 43 91 107 10 34 9 45 -1 58 -17 20 -54 19 -76 -2z"/>
<path d="M6800 10089 c-53 -22 -117 -110 -104 -143 7 -19 18 -23 88 -31 31 -4
59 -11 62 -16 3 -5 10 -7 15 -3 6 3 18 -1 27 -9 52 -45 137 -62 163 -31 11 14
7 21 -29 51 -54 44 -75 85 -67 124 4 16 3 28 -2 27 -4 -1 -20 6 -34 15 -34 23
-87 30 -119 16z"/>
<path d="M16701 9774 c-27 -19 -60 -88 -61 -124 0 -52 51 -67 87 -27 52 57 70
137 34 157 -26 13 -33 13 -60 -6z"/>
<path d="M17937 9429 c-19 -11 -50 -69 -61 -111 -8 -34 2 -58 28 -67 32 -12
64 8 85 53 31 68 34 93 11 116 -22 22 -36 24 -63 9z"/>
<path d="M19163 9066 c-44 -37 -69 -136 -41 -164 18 -18 63 -15 81 6 19 20 47
95 47 123 0 20 -33 59 -49 59 -5 0 -23 -11 -38 -24z"/>
<path d="M19423 8934 c-24 -14 -43 -30 -43 -34 0 -12 61 -24 70 -14 11 14 30
74 22 74 -4 -1 -26 -12 -49 -26z"/>
</g>
</svg>
